<svg height="480pt" viewBox="0 -44 480 480" width="480pt" xmlns="http://www.w3.org/2000/svg"><path d="m112 0h96v384h-96zm0 0" fill="#e4725f"/><path d="m208 0h96v384h-96zm0 0" fill="#4472b2"/><path d="m16 0h96v384h-96zm0 0" fill="#7ecb92"/><path d="m480 96h-48c-17.671875 0-32 14.328125-32 32v32h48c17.671875 0 32-14.328125 32-32zm0 0" fill="#7ecb92"/><path d="m320 96h48c17.671875 0 32 14.328125 32 32v32h-48c-17.671875 0-32-14.328125-32-32zm0 0" fill="#7ecb92"/><path d="m88 328c0 13.253906-10.746094 24-24 24s-24-10.746094-24-24 10.746094-24 24-24 24 10.746094 24 24zm0 0" fill="#e8eff4"/><path d="m184 328c0 13.253906-10.746094 24-24 24s-24-10.746094-24-24 10.746094-24 24-24 24 10.746094 24 24zm0 0" fill="#e8eff4"/><path d="m280 328c0 13.253906-10.746094 24-24 24s-24-10.746094-24-24 10.746094-24 24-24 24 10.746094 24 24zm0 0" fill="#e8eff4"/><path d="m432 384c30.734375-30.734375 48-72.414062 48-115.878906v-28.121094h-144v28.121094c0 43.464844 17.265625 85.152344 48 115.878906" fill="#c18e59"/><path d="m336.136719 270.921875h143.71875c.023437-.9375.144531-1.867187.144531-2.800781v-28.121094h-144v28.121094c0 .933594.121094 1.863281.136719 2.800781zm0 0" fill="#f0d365"/><path d="m376 240c15.703125-26.175781 24-56.121094 24-86.648438v-9.351562 9.351562c0 30.519532 8.296875 60.472657 24 86.648438" fill="#c18e59"/><path d="m0 376h480v16h-480zm0 0" fill="#976947"/><g fill="#568e53"><path d="m40 24h48v16h-48zm0 0"/><path d="m40 56h48v16h-48zm0 0"/><path d="m40 88h48v16h-48zm0 0"/><path d="m40 120h16v160h-16zm0 0"/><path d="m72 120h16v160h-16zm0 0"/></g><path d="m136 24h48v16h-48zm0 0" fill="#af4a47"/><path d="m136 56h48v16h-48zm0 0" fill="#af4a47"/><path d="m136 88h48v16h-48zm0 0" fill="#af4a47"/><path d="m136 120h16v160h-16zm0 0" fill="#af4a47"/><path d="m168 120h16v160h-16zm0 0" fill="#af4a47"/><path d="m232 24h48v16h-48zm0 0" fill="#2d4d83"/><path d="m232 56h48v16h-48zm0 0" fill="#2d4d83"/><path d="m232 88h48v16h-48zm0 0" fill="#2d4d83"/><path d="m232 120h16v160h-16zm0 0" fill="#2d4d83"/><path d="m264 120h16v160h-16zm0 0" fill="#2d4d83"/><path d="m392 160h16c0-13.230469 10.769531-24 24-24h24v-16h-24c-13.128906 0-24.703125 6.449219-32 16.246094-7.296875-9.796875-18.871094-16.246094-32-16.246094h-24v16h24c13.230469 0 24 10.769531 24 24zm0 0" fill="#568e53"/></svg>