<svg id="flat" height="512" viewBox="0 0 512 512" width="512" xmlns="http://www.w3.org/2000/svg"><path d="m40 304h432v32h-432z" fill="#2b93cb"/><path d="m80 24h352v200h-352z" fill="#216ead"/><path d="m56 224h400v32h-400z" fill="#2b93cb"/><path d="m240 392v-24l-24-80h-80l-24 80v24a16 16 0 0 0 16 16h96a16 16 0 0 0 16-16z" fill="#eeba2b"/><path d="m160 312h32v16h-32z" fill="#914c0e"/><g fill="#c77708"><path d="m128 408 8 80h16l8-80z"/><path d="m192 408 8 80h16l8-80z"/><path d="m288 408 8 80h16l8-80z"/><path d="m352 408 8 80h16l8-80z"/></g><path d="m400 392v-24l-24-80h-80l-24 80v24a16 16 0 0 0 16 16h96a16 16 0 0 0 16-16z" fill="#eeba2b"/><path d="m320 312h32v16h-32z" fill="#914c0e"/><path d="m88 336-16 152h-16v-152z" fill="#216ead"/><path d="m424 336 16 152h16v-152z" fill="#216ead"/><path d="m144 184h64v40h-64z" fill="#5ab9e6"/></svg>