<svg id="File_management" height="512" viewBox="0 0 64 64" width="512" xmlns="http://www.w3.org/2000/svg" data-name="File management"><path d="m25 7h36v54h-36z" fill="#ffcd25"/><path d="m57 57h-42v-54h30l12 13z" fill="#ffe027"/><path d="m57 16h-12v-13z" fill="#ffe464"/><path d="m21 27h28v5h-28z" fill="#365e7d"/><path d="m25 32-4-9h-18v5.826 32.174h49v-29z" fill="#4a80aa"/><path d="m19 7h6v2h-6z" fill="#1a6fb0"/><path d="m27 7h14v2h-14z" fill="#1a6fb0"/><path d="m19 11h22v2h-22z" fill="#1a6fb0"/><path d="m19 15h22v2h-22z" fill="#1a6fb0"/><g fill="#fff"><path d="m7 37h2v2h-2z"/><path d="m15 37h14v2h-14z"/><path d="m7 41h22v2h-22z"/><path d="m7 45h22v2h-22z"/><path d="m11 37h2v2h-2z"/></g></svg>