<svg id="File_management" height="512" viewBox="0 0 64 64" width="512" xmlns="http://www.w3.org/2000/svg" data-name="File management"><path d="m7 10h50v14h-50z" fill="#365e7d"/><path d="m52 31h-38v-28h28l10 9z" fill="#ffe027"/><path d="m52 12h-10v-9z" fill="#ffe464"/><path d="m25 24-4-8h-18v6.826 32.174h58v-31z" fill="#4a80aa"/><path d="m32 28-15 17h9l-4 16h20l-4-16h9z" fill="#23be99"/><g fill="#1a6fb0"><path d="m18 7h5v2h-5z"/><path d="m26 7h11v2h-11z"/><path d="m18 11h19v2h-19z"/><path d="m27 15h21v2h-21z"/><path d="m27 19h21v2h-21z"/></g></svg>