<?xml version="1.0" encoding="utf-8"?>
<!-- Generator: Adobe Illustrator 22.1.0, SVG Export Plug-In . SVG Version: 6.00 Build 0)  -->
<svg version="1.1" id="Layer_1" xmlns="http://www.w3.org/2000/svg" xmlns:xlink="http://www.w3.org/1999/xlink" x="0px" y="0px"
	 viewBox="0 0 87.5 75" style="enable-background:new 0 0 87.5 75;" xml:space="preserve">
<style type="text/css">
	.st0{fill:none;}
	.st1{fill:#EE1C25;}
	.st2{fill:#FEF200;}
	.st3{fill:#2E3192;}
	.st4{fill:#FFFFFF;}
</style>
<g>
	<g>
		<rect x="10.6" y="2" class="st0" width="70.7" height="71.1"/>
	</g>
	<g>
		<path class="st1" d="M22.4,58.9l-19.2,14l20.4-12.7C23.2,59.8,22.8,59.3,22.4,58.9z"/>
		<path d="M3.3,73.2l-0.4-0.6l19.5-14.2l0.2,0.3c0.4,0.4,0.8,0.9,1.2,1.3l0.3,0.3L3.3,73.2z M22.3,59.4l-10.6,7.7l11.2-7
			C22.8,59.9,22.5,59.6,22.3,59.4z"/>
	</g>
	<g>
		<g>
			<path class="st2" d="M45.9,73.5c-1,0-2,0-3-0.1l-0.4,0l-0.8-3.6c-2.8-0.4-5.5-1.1-8.2-2.2l-2.4,2.8l-0.4-0.2
				c-1.9-0.9-3.7-1.9-5.4-3.1l-0.3-0.2l1.2-3.5c-2.2-1.7-4.3-3.7-6-6l-3.5,1.3l-0.3-0.4c-1.2-1.7-2.2-3.5-3.1-5.4l-0.2-0.4l2.8-2.5
				c-1.1-2.6-1.8-5.3-2.2-8.2l-3.6-0.6l0-0.4c-0.1-1-0.1-2.1-0.1-3.1c0-1,0-2.1,0.1-3.1l0-0.4l3.7-0.8c0.4-2.8,1.1-5.5,2.2-8.2
				l-2.8-2.4l0.2-0.4c0.9-1.9,1.9-3.7,3.1-5.4l0.2-0.3l3.5,1.2c1.7-2.2,3.7-4.2,6-6L25,8.3l0.4-0.2c1.7-1.2,3.5-2.2,5.4-3.1l0.4-0.2
				l2.5,2.8c2.6-1.1,5.4-1.8,8.2-2.2l0.7-3.6l0.4,0c1-0.1,2.1-0.1,3.1-0.1c1,0,2.1,0,3.2,0.1l0.4,0l0.7,3.7c2.7,0.4,5.3,1.1,7.8,2.1
				l2.4-2.8l0.4,0.2c1.9,0.9,3.7,1.9,5.4,3.1l0.3,0.2l-1.2,3.5c2.2,1.7,4.3,3.7,6,5.9l3.5-1.3l0.3,0.4c1.2,1.7,2.3,3.5,3.2,5.4
				l0.2,0.4L75.8,25c1.1,2.6,1.8,5.3,2.2,8.1l3.6,0.6l0,0.4c0.1,1.1,0.2,2.2,0.2,3.3c0,1,0,2-0.1,2.9l0,0.4l-3.6,0.8
				c-0.4,2.8-1.1,5.5-2.1,8.2l2.8,2.4l-0.2,0.4c-0.9,1.9-1.9,3.7-3.1,5.4l-0.2,0.3l-3.5-1.2c-1.7,2.3-3.7,4.3-5.9,6l1.3,3.5
				l-0.4,0.3c-1.7,1.2-3.5,2.3-5.4,3.1l-0.4,0.2l-2.5-2.8c-2.6,1.1-5.3,1.8-8.2,2.2l-0.6,3.6l-0.4,0C48.1,73.4,47,73.5,45.9,73.5z"
				/>
		</g>
		<g>
			<path d="M45.9,2.2c1.1,0,2.1,0,3.1,0.1L49.8,6c3,0.4,5.8,1.1,8.5,2.3l2.3-2.8c1.9,0.9,3.7,1.9,5.3,3L64.8,12
				c2.5,1.8,4.6,4,6.5,6.4l3.5-1.3c1.2,1.7,2.2,3.4,3.1,5.3l-2.8,2.5c1.2,2.7,2,5.7,2.4,8.8l3.6,0.6c0.1,1.1,0.2,2.2,0.2,3.3
				c0,1,0,1.9-0.1,2.9l-3.6,0.8c-0.3,3.1-1.1,6-2.3,8.8l2.8,2.4c-0.9,1.9-1.9,3.7-3.1,5.3l-3.5-1.2c-1.8,2.4-4,4.6-6.4,6.5l1.3,3.5
				c-1.7,1.2-3.4,2.2-5.3,3.1l-2.5-2.8c-2.7,1.2-5.7,2-8.8,2.4l-0.6,3.6c-1,0.1-2.1,0.1-3.2,0.1c-1,0-2,0-3-0.1l-0.8-3.6
				c-3.1-0.4-6-1.2-8.8-2.3l-2.4,2.8c-1.9-0.9-3.7-1.9-5.3-3.1l1.2-3.5c-2.4-1.8-4.6-4-6.4-6.4L17,57.9c-1.2-1.7-2.2-3.4-3.1-5.3
				l2.8-2.5c-1.2-2.8-2-5.7-2.3-8.8l-3.6-0.6c-0.1-1-0.1-2.1-0.1-3.1c0-1,0-2,0.1-3l3.6-0.7c0.4-3.1,1.2-6,2.4-8.8l-2.8-2.4
				c0.9-1.9,1.9-3.6,3.1-5.3l3.5,1.2c1.8-2.4,4-4.6,6.4-6.4l-1.3-3.5c1.7-1.2,3.5-2.2,5.3-3.1l2.5,2.8c2.8-1.2,5.7-2,8.8-2.3
				l0.6-3.6C43.9,2.2,44.9,2.2,45.9,2.2 M45.9,1c-1,0-2.1,0-3.1,0.1L42,1.2l-0.2,0.9l-0.5,2.8c-2.6,0.4-5.1,1-7.5,2l-1.9-2.2
				l-0.6-0.6l-0.8,0.4c-1.9,0.9-3.8,2-5.5,3.2l-0.7,0.5l0.3,0.8l1,2.7c-2,1.6-3.9,3.4-5.5,5.5l-2.8-0.9l-0.8-0.3L16,16.6
				c-1.2,1.7-2.3,3.6-3.2,5.5l-0.4,0.8l0.7,0.6l2.2,1.8c-1,2.4-1.6,4.9-2,7.5l-2.8,0.6l-0.8,0.2l-0.1,0.8c-0.1,1.1-0.1,2.1-0.1,3.1
				c0,1.1,0,2.2,0.1,3.2l0.1,0.9l0.9,0.2l2.8,0.5c0.4,2.6,1,5.1,2,7.5l-2.2,1.9l-0.6,0.6l0.4,0.8c0.9,1.9,2,3.8,3.2,5.5l0.5,0.7
				l0.8-0.3l2.7-1c1.6,2,3.5,3.9,5.5,5.5l-0.9,2.8L24.4,67l0.7,0.5c1.7,1.2,3.6,2.3,5.5,3.2l0.8,0.4l0.6-0.7l1.8-2.2
				c2.4,1,4.9,1.6,7.5,2l0.6,2.8l0.2,0.8l0.8,0.1c1,0.1,2,0.1,3.1,0.1c1.1,0,2.2,0,3.3-0.1l0.9-0.1l0.1-0.9l0.5-2.8
				c2.6-0.4,5.1-1.1,7.5-2l1.9,2.2l0.6,0.6l0.8-0.4c1.9-0.9,3.8-2,5.5-3.2l0.7-0.5L67.4,66l-1-2.7c2-1.6,3.9-3.5,5.5-5.5l2.8,0.9
				l0.8,0.3l0.5-0.7c1.2-1.7,2.3-3.6,3.2-5.5l0.4-0.8l-0.7-0.6l-2.2-1.8c1-2.4,1.6-4.9,2-7.5l2.8-0.6l0.8-0.2l0.1-0.8
				c0.1-1,0.1-2,0.1-3c0-1.1-0.1-2.2-0.2-3.4l-0.1-0.9l-0.9-0.1l-2.8-0.5c-0.4-2.6-1.1-5.1-2-7.5l2.2-1.9l0.6-0.6l-0.4-0.8
				c-0.9-1.9-2-3.8-3.2-5.5l-0.5-0.7L74.4,16l-2.7,1c-1.6-2-3.5-3.9-5.5-5.5l0.9-2.8L67.3,8l-0.7-0.5c-1.7-1.2-3.6-2.3-5.5-3.1
				L60.3,4l-0.6,0.7L58,6.8c-2.3-0.9-4.7-1.5-7.2-1.9l-0.6-2.8L50,1.3l-0.8-0.1C48.1,1.1,47,1,45.9,1L45.9,1z"/>
		</g>
	</g>
	<g>
		<g>
			<circle class="st3" cx="45.9" cy="37.5" r="22"/>
		</g>
		<g>
			<path d="M45.9,15.9c11.9,0,21.7,9.7,21.7,21.7s-9.7,21.7-21.7,21.7s-21.7-9.7-21.7-21.7S34,15.9,45.9,15.9 M45.9,15.1
				c-12.4,0-22.4,10-22.4,22.4S33.6,60,45.9,60s22.4-10,22.4-22.4S58.3,15.1,45.9,15.1L45.9,15.1z"/>
		</g>
	</g>
	<g>
		<g>
			<path class="st4" d="M45.9,48.3c-5.9,0-10.7-4.8-10.7-10.7c0-5.9,4.8-10.7,10.7-10.7s10.7,4.8,10.7,10.7
				C56.7,43.5,51.9,48.3,45.9,48.3z"/>
		</g>
		<g>
			<path d="M45.9,27.2c5.7,0,10.4,4.6,10.4,10.4s-4.6,10.4-10.4,10.4s-10.4-4.6-10.4-10.4S40.2,27.2,45.9,27.2 M45.9,26.4
				c-6.1,0-11.1,5-11.1,11.1s5,11.1,11.1,11.1S57,43.7,57,37.5S52.1,26.4,45.9,26.4L45.9,26.4z"/>
		</g>
	</g>
	<g>
		<g>
			<path class="st1" d="M31.9,54.5c-0.5-0.4-0.9-0.8-1.3-1.2l16.5-12H25.2L82.6,5.1l-1.9,4.3l5.4,0.1L35.2,38l26-1.7L31.9,54.5z"/>
		</g>
		<g>
			<path d="M81.8,6.1l-1.2,2.7l-0.5,1l1.1,0l3.4,0.1L62.6,22.3L36.5,36.9l-2.9,1.6l3.3-0.2l22.9-1.5L32,54.1
				c-0.3-0.2-0.5-0.4-0.8-0.7l15.2-11.1l1.9-1.4h-2.3H26.5l33.1-20.9L81.8,6.1 M83.4,4.1L59.2,19.5L23.9,41.7c0,0,0,0,0,0h22
				L30,53.3c0.6,0.6,1.2,1.2,1.9,1.7l30.8-19.2l-25.9,1.7l26.1-14.6L87.5,9.2l-6.2-0.1L83.4,4.1L83.4,4.1z"/>
		</g>
	</g>
	<g>
		<g>
			<path d="M32,17.8c0.1,0.1,0.1,0.2,0.1,0.3c0,0.1,0,0.2,0,0.3c0,0.1,0,0.2-0.1,0.3c-0.1,0.1-0.1,0.2-0.2,0.2
				c-0.1,0.1-0.2,0.1-0.3,0.2c-0.1,0-0.2,0.1-0.3,0c-0.1,0-0.2,0-0.3-0.1c-0.1-0.1-0.2-0.2-0.3-0.3l-1.7-2.1
				c-0.1-0.1-0.1-0.2-0.2-0.3c0-0.1,0-0.2,0-0.2c0-0.1,0-0.2,0.1-0.2c0-0.1,0.1-0.2,0.1-0.3c0,0,0-0.1,0.1-0.2
				c0-0.1,0.1-0.1,0.1-0.2c0-0.1,0-0.1,0-0.2s0-0.1,0-0.1c0,0-0.1,0-0.1,0c0,0-0.1,0-0.1,0c0,0-0.1,0.1-0.1,0.2
				c0,0.1-0.1,0.1-0.1,0.2c0,0.1-0.1,0.2-0.1,0.2c0,0.1-0.1,0.1-0.2,0.2c-0.1,0.1-0.1,0.1-0.2,0.1c-0.1,0-0.1,0-0.2,0
				c-0.1,0-0.2,0-0.2-0.1c-0.1,0-0.2-0.1-0.3-0.2c-0.2-0.1-0.3-0.2-0.5-0.3s-0.3-0.2-0.5-0.2c-0.2-0.1-0.4-0.1-0.5-0.2
				c-0.2-0.1-0.4-0.1-0.6-0.1l0-0.5c0.2,0,0.4,0,0.6,0.1c0.2,0.1,0.4,0.1,0.6,0.2c0.2,0.1,0.4,0.2,0.6,0.3c0.2,0.1,0.4,0.2,0.5,0.3
				c0,0,0.1,0,0.1,0.1c0,0,0.1,0.1,0.1,0.1c0,0,0.1,0.1,0.1,0.1c0,0,0.1,0,0.1,0c0.1,0,0.1-0.1,0.1-0.2c0-0.1,0.1-0.1,0.1-0.2
				c0-0.1,0.1-0.1,0.1-0.2c0-0.1,0.1-0.1,0.1-0.2c0.1-0.1,0.2-0.1,0.2-0.1c0.1,0,0.2-0.1,0.2-0.1c0.1,0,0.2,0,0.2,0
				c0.1,0,0.1,0.1,0.2,0.2c0.1,0.1,0.1,0.2,0.1,0.3c0,0.1,0,0.2,0,0.3c0,0.1-0.1,0.2-0.1,0.3c0,0.1-0.1,0.2-0.1,0.3
				c0,0.1,0,0.2,0,0.3c0,0.1,0,0.2,0.1,0.3l1.3,1.7c0-0.1,0.1-0.1,0.1-0.2c0-0.1,0.1-0.1,0.1-0.1c0.2-0.1,0.4-0.2,0.6-0.2
				C31.7,17.5,31.9,17.6,32,17.8z M31.7,18c0,0-0.1-0.1-0.1-0.1c0,0-0.1,0-0.1,0c0,0-0.1,0-0.1,0c0,0-0.1,0-0.1,0.1S31.1,18,31.1,18
				c0,0,0,0.1,0,0.1c0,0,0,0.1,0,0.1c0,0,0,0.1,0.1,0.1s0.1,0.1,0.1,0.1c0,0,0.1,0,0.1,0c0,0,0.1,0,0.1,0c0,0,0.1,0,0.1-0.1
				c0.1-0.1,0.1-0.1,0.1-0.2C31.8,18.2,31.8,18.1,31.7,18z"/>
		</g>
		<g>
			<path d="M35.2,10.1c0,0.2,0,0.4,0,0.6c0,0.2,0.1,0.3,0.1,0.5s0.1,0.3,0.2,0.5c0.1,0.2,0.2,0.3,0.2,0.5c0.1,0.2,0.2,0.3,0.3,0.5
				c0.1,0.2,0.2,0.3,0.3,0.5c0.1,0.2,0.3,0.4,0.4,0.6c0.1,0.2,0.3,0.4,0.4,0.6c0.1,0.2,0.1,0.3,0.2,0.5c0,0.2,0,0.3,0,0.5
				c0,0.2-0.1,0.3-0.2,0.4c-0.1,0.1-0.2,0.2-0.4,0.3c-0.1,0-0.2,0.1-0.3,0.1c-0.1,0-0.2,0-0.3,0c-0.1,0-0.2,0-0.3,0
				c-0.1,0-0.2-0.1-0.3-0.1c0,0.1,0,0.2-0.1,0.3c0,0.1-0.1,0.2-0.2,0.3c-0.1,0.1-0.1,0.2-0.2,0.2c-0.1,0.1-0.2,0.1-0.3,0.2
				c-0.2,0.1-0.4,0.2-0.6,0.2c-0.2,0-0.4,0-0.5,0c-0.2,0-0.3-0.1-0.4-0.2c-0.1-0.1-0.3-0.3-0.4-0.5c-0.1-0.1-0.1-0.3-0.1-0.4
				c0-0.2-0.1-0.4,0-0.6c0-0.2,0-0.4,0.1-0.6c0-0.2,0.1-0.4,0.1-0.5c-0.1,0.1-0.2,0.1-0.3,0.1s-0.2,0-0.3,0c-0.1,0-0.2-0.1-0.3-0.1
				c-0.1-0.1-0.2-0.2-0.2-0.3c-0.1-0.1-0.1-0.2-0.1-0.3c0-0.1,0-0.2,0-0.3c0-0.1,0.1-0.2,0.2-0.2c0.1-0.1,0.1-0.1,0.2-0.2
				c0.1-0.1,0.2-0.1,0.3-0.1c0.1,0,0.2,0,0.3,0c0.1,0,0.2,0.1,0.3,0.1s0.2,0.2,0.2,0.3c0.1,0.1,0.1,0.3,0.1,0.5c0,0.2,0,0.3,0,0.5
				c0,0.2,0,0.4,0,0.5c0,0.2,0,0.4,0,0.6c0,0.2,0,0.3,0,0.5c0,0.1,0.1,0.3,0.1,0.4c0.1,0.1,0.1,0.2,0.2,0.3s0.2,0.1,0.3,0.1
				c0.1,0,0.2,0,0.3,0c0.1,0,0.2-0.1,0.3-0.1c0.1-0.1,0.2-0.1,0.3-0.2c0.1-0.1,0.1-0.2,0.2-0.3c0-0.1,0-0.2,0-0.3
				c0-0.1,0-0.2-0.1-0.3l-1.5-2.9l0.5-0.2l1.5,2.9c0,0.1,0.1,0.2,0.2,0.2c0.1,0.1,0.2,0.1,0.3,0.2c0.1,0,0.2,0.1,0.3,0.1
				c0.1,0,0.2,0,0.3-0.1c0.1,0,0.2-0.1,0.2-0.2c0.1-0.1,0.1-0.2,0.1-0.3c0-0.1,0-0.2,0-0.3c0-0.1,0-0.2-0.1-0.3
				c-0.1-0.2-0.2-0.3-0.3-0.5c-0.1-0.1-0.2-0.3-0.3-0.4c-0.1-0.2-0.3-0.4-0.4-0.6c-0.1-0.2-0.3-0.4-0.4-0.7C35.1,12.1,35,12,35,11.8
				c-0.1-0.2-0.1-0.3-0.2-0.5c-0.1-0.2-0.1-0.3-0.1-0.5c0-0.2,0-0.3,0-0.5L35.2,10.1z M32.6,13.6c0-0.1-0.1-0.1-0.2-0.2
				c-0.1,0-0.2,0-0.3,0c-0.1,0-0.2,0.1-0.2,0.2c0,0.1,0,0.2,0,0.3c0,0.1,0.1,0.2,0.2,0.2c0.1,0,0.2,0,0.3,0c0.1,0,0.2-0.1,0.2-0.2
				C32.7,13.8,32.7,13.7,32.6,13.6z"/>
		</g>
		<g>
			<path d="M41.7,8.4c-0.1,0.2-0.1,0.4-0.1,0.5c0,0.2,0,0.3,0,0.5c0,0.2,0,0.3,0.1,0.5c0,0.2,0.1,0.3,0.1,0.5c0,0.2,0.1,0.4,0.2,0.6
				c0.1,0.2,0.1,0.4,0.2,0.5c0.1,0.2,0.2,0.4,0.3,0.7c0.1,0.2,0.2,0.5,0.2,0.7c0,0.2,0.1,0.3,0,0.5c0,0.2-0.1,0.3-0.1,0.5
				c-0.1,0.1-0.2,0.3-0.3,0.4c-0.1,0.1-0.3,0.2-0.5,0.2c-0.1,0-0.2,0-0.3,0c-0.1,0-0.2,0-0.3,0c-0.1,0-0.2-0.1-0.3-0.1
				c-0.1,0-0.2-0.1-0.3-0.2c0,0.1-0.1,0.2-0.2,0.3c-0.1,0.1-0.1,0.2-0.2,0.2s-0.2,0.1-0.3,0.2s-0.2,0.1-0.3,0.1
				C39.4,15,39.2,15,39,15s-0.4,0-0.5-0.1c-0.1-0.1-0.3-0.2-0.4-0.3C38,14.5,38,14.3,37.9,14c0-0.1,0-0.3,0-0.4c0-0.2,0-0.4,0.1-0.6
				c0-0.2,0.1-0.4,0.2-0.5c0.1-0.2,0.1-0.3,0.2-0.5c-0.1,0-0.2,0-0.3,0s-0.2,0-0.3-0.1c-0.1,0-0.2-0.1-0.2-0.2
				c-0.1-0.1-0.1-0.2-0.1-0.3c0-0.1,0-0.2,0-0.3s0.1-0.2,0.1-0.3c0.1-0.1,0.1-0.1,0.2-0.2c0.1-0.1,0.2-0.1,0.3-0.1
				c0.1,0,0.2,0,0.3,0c0.1,0,0.2,0,0.3,0.1c0.1,0,0.2,0.1,0.2,0.2c0.1,0.1,0.1,0.2,0.1,0.3c0,0.2,0,0.3,0,0.5c0,0.2,0,0.3-0.1,0.5
				c0,0.2-0.1,0.3-0.2,0.5c-0.1,0.2-0.1,0.4-0.2,0.5c-0.1,0.2-0.1,0.3-0.1,0.5c0,0.1,0,0.3,0,0.4c0,0.1,0.1,0.3,0.2,0.3
				c0.1,0.1,0.1,0.1,0.2,0.2c0.1,0,0.2,0,0.3,0c0.1,0,0.2,0,0.4-0.1c0.1,0,0.2-0.1,0.3-0.1c0.1-0.1,0.2-0.1,0.2-0.2
				c0.1-0.1,0.1-0.2,0.1-0.3c0-0.1,0-0.2,0-0.3l-0.8-3.2l0.5-0.1l0.8,3.2c0,0.1,0.1,0.2,0.1,0.3c0.1,0.1,0.1,0.2,0.2,0.2
				c0.1,0.1,0.2,0.1,0.3,0.1c0.1,0,0.2,0,0.3,0c0.1,0,0.2-0.1,0.3-0.1c0.1-0.1,0.1-0.2,0.2-0.2s0.1-0.2,0.1-0.3c0-0.1,0-0.2,0-0.3
				c0-0.2-0.1-0.3-0.2-0.5c-0.1-0.2-0.1-0.3-0.2-0.5c-0.1-0.2-0.2-0.5-0.3-0.7c-0.1-0.2-0.2-0.5-0.2-0.7c0-0.2-0.1-0.3-0.1-0.5
				C41,9.8,41,9.7,41,9.5s0-0.3,0-0.5c0-0.2,0-0.3,0.1-0.5L41.7,8.4z M38.4,11.2c0-0.1-0.1-0.2-0.2-0.2c-0.1,0-0.2-0.1-0.3,0
				c-0.1,0-0.2,0.1-0.2,0.2c-0.1,0.1-0.1,0.2,0,0.3c0,0.1,0.1,0.2,0.2,0.2c0.1,0.1,0.2,0.1,0.3,0c0.1,0,0.2-0.1,0.2-0.2
				C38.4,11.4,38.4,11.3,38.4,11.2z"/>
		</g>
		<g>
			<path d="M42.1,7.2c0,0.1-0.1,0.3-0.1,0.4c-0.1,0.1-0.2,0.2-0.3,0.3c-0.1,0.1-0.2,0.2-0.4,0.2c-0.1,0.1-0.3,0.1-0.4,0.2
				c-0.1,0-0.3,0.1-0.4,0.1c-0.1,0-0.3,0-0.4,0.1l-1,0.1c0-0.1,0-0.1,0-0.2c0,0,0.1-0.1,0.1-0.1c0,0,0.1-0.1,0.1-0.1
				c0.1,0,0.1-0.1,0.2-0.1c0,0,0.1-0.1,0.1-0.1c0,0,0.1-0.1,0.1-0.1c0,0,0.1-0.1,0.1-0.1c0,0,0-0.1,0-0.1c0,0,0-0.1,0-0.1
				c0,0-0.1,0-0.1,0c0,0-0.1,0-0.1,0c0,0,0,0.1,0,0.1c0,0,0,0,0,0c0,0,0,0,0,0l-0.4,0.2c0,0,0-0.1,0-0.1c0,0,0,0,0,0
				c0-0.1,0-0.2,0-0.2c0-0.1,0.1-0.1,0.1-0.2c0-0.1,0.1-0.1,0.2-0.1s0.2-0.1,0.2-0.1c0.1,0,0.2,0,0.2,0c0.1,0,0.1,0.1,0.2,0.1
				c0.1,0,0.1,0.1,0.2,0.2c0,0.1,0.1,0.1,0.1,0.2c0,0.1,0,0.2-0.1,0.3c0.1,0,0.2,0,0.2-0.1c0.1,0,0.2,0,0.2-0.1c0.1,0,0.2,0,0.2-0.1
				c0.1,0,0.1-0.1,0.2-0.1c0,0,0.1-0.1,0.1-0.1c0,0,0.1-0.1,0.1-0.1c0-0.1,0.1-0.1,0.1-0.2c0-0.1,0-0.1,0-0.2L42.1,7.2z"/>
		</g>
		<g>
			<path d="M44,10.3c0.1,0,0.1,0,0.1-0.1c0,0,0.1,0,0.1,0c0.1,0,0.2,0,0.3,0c0.1,0,0.2,0.1,0.2,0.1s0.1,0.1,0.2,0.2S45,10.9,45,11
				c0,0.1,0,0.2,0,0.3c0,0.1-0.1,0.2-0.2,0.2c-0.1,0.1-0.1,0.1-0.2,0.2c-0.1,0-0.2,0.1-0.3,0.1c-0.2,0-0.3,0-0.4-0.1
				c-0.1,0-0.2-0.1-0.3-0.2c-0.1-0.1-0.1-0.2-0.2-0.3c0-0.1-0.1-0.3-0.1-0.4c0-0.2,0-0.3,0.1-0.5c0.1-0.2,0.2-0.3,0.3-0.4
				c0.1-0.1,0.3-0.2,0.5-0.3c0.2-0.1,0.4-0.1,0.6-0.1c0.2,0,0.4,0,0.6,0.1c0.2,0.1,0.4,0.2,0.6,0.3c0.2,0.1,0.3,0.3,0.4,0.4
				c0.1,0.2,0.2,0.4,0.2,0.6l0.1,2.3c0,0,0,0,0,0.1c0,0,0,0.1,0,0.2c0,0.1,0,0.1,0,0.2c0,0.1,0,0.1,0,0.2c0,0.1,0,0.1,0,0.2
				c0,0,0,0.1,0,0.1L46,14c0,0,0-0.1,0-0.1c0-0.1,0-0.2,0.1-0.3c0-0.1,0-0.2,0.1-0.3c0-0.1,0-0.2,0-0.3l-0.1-2.3
				c0-0.1,0-0.2-0.1-0.3c-0.1-0.1-0.2-0.2-0.3-0.3c-0.1-0.1-0.3-0.1-0.4-0.2c-0.1,0-0.3-0.1-0.4,0c-0.1,0-0.2,0-0.3,0
				c-0.1,0-0.2,0-0.3,0.1c-0.1,0-0.1,0.1-0.2,0.1C44.1,10.2,44,10.3,44,10.3z M44.6,11c0-0.1,0-0.2-0.1-0.2
				c-0.1-0.1-0.2-0.1-0.3-0.1c-0.1,0-0.2,0-0.3,0.1c-0.1,0.1-0.1,0.2-0.1,0.3c0,0.1,0,0.2,0.1,0.3c0.1,0.1,0.2,0.1,0.3,0.1
				c0.1,0,0.2,0,0.2-0.1C44.6,11.2,44.6,11.1,44.6,11z"/>
		</g>
		<g>
			<path d="M48.2,13c0,0,0.1-0.1,0.1-0.1c0.1,0,0.1-0.1,0.2-0.1c0.1,0,0.1,0,0.2,0c0.1,0,0.1,0,0.2,0c0.1,0,0.2,0,0.3,0.1
				c0.1,0.1,0.2,0.1,0.2,0.2c0.1,0.1,0.1,0.2,0.1,0.3c0,0.1,0,0.2,0,0.3c0,0.1-0.1,0.2-0.1,0.3c-0.1,0.1-0.1,0.2-0.2,0.2
				c-0.1,0.1-0.2,0.1-0.3,0.1c-0.1,0-0.2,0-0.3,0c-0.2,0-0.3-0.1-0.4-0.1c-0.1-0.1-0.2-0.1-0.3-0.3c-0.1-0.1-0.2-0.2-0.2-0.4
				c0-0.2,0-0.4,0-0.6c0-0.2,0.1-0.4,0.2-0.5c0.1-0.1,0.3-0.2,0.4-0.3c0.2-0.1,0.3-0.1,0.5-0.1c0.2,0,0.4,0,0.6,0
				c0.2,0,0.3,0.1,0.5,0.2c0.1,0.1,0.2,0.2,0.3,0.3c0.1,0.1,0.1,0.2,0.2,0.4c0.1,0.1,0.1,0.3,0.1,0.4c0,0.1,0.1,0.2,0.1,0.3
				c0,0.1,0,0.2,0.1,0.3c0,0.1,0.1,0.1,0.1,0.2c0,0,0.1,0.1,0.1,0.1c0.1,0,0.1,0,0.2-0.1c0.1-0.1,0.1-0.1,0.2-0.2
				c0-0.1,0.1-0.2,0.1-0.3c0-0.1,0.1-0.2,0.1-0.4c0-0.1,0.1-0.2,0.1-0.4c0-0.1,0-0.2,0.1-0.3c0.1-0.3,0.1-0.5,0.1-0.7
				c0-0.2,0-0.4-0.1-0.5c0-0.1-0.1-0.3-0.2-0.3c-0.1-0.1-0.1-0.2-0.2-0.2c-0.1-0.1-0.1-0.1-0.2-0.1c-0.1,0-0.2-0.1-0.3-0.1
				c-0.1,0-0.2-0.1-0.3-0.1s-0.2,0-0.3-0.1c-0.1,0-0.2,0-0.2,0c-0.1,0-0.1,0-0.2,0c-0.1,0-0.1,0-0.2,0c-0.1,0-0.1,0-0.2,0
				c-0.1,0-0.1,0-0.2,0c-0.1,0-0.2,0-0.2,0c-0.1,0-0.1,0-0.2,0.1c-0.1,0-0.1,0.1-0.1,0.1c0,0,0,0.1,0,0.1c0,0,0,0.1,0.1,0.1
				c0,0,0,0.1,0.1,0.1c0,0,0,0,0,0.1l-0.4,0.4c-0.1-0.1-0.2-0.2-0.3-0.3C48,10.7,48,10.5,48,10.4c0-0.1,0.1-0.3,0.2-0.4
				s0.2-0.2,0.3-0.2c0.1-0.1,0.2-0.1,0.4-0.1c0.1,0,0.3,0,0.4,0c0.1,0,0.1,0,0.2,0c0.1,0,0.2,0,0.2,0c0.1,0,0.2,0,0.2,0
				c0.1,0,0.1,0,0.2,0c0.1,0,0.2,0,0.3,0.1c0.1,0,0.3,0.1,0.4,0.1c0.1,0,0.3,0.1,0.4,0.2c0.1,0.1,0.2,0.1,0.3,0.2
				c0.1,0.2,0.3,0.3,0.3,0.5c0.1,0.2,0.1,0.4,0.2,0.5c0,0.2,0,0.4,0,0.6c0,0.2,0,0.4-0.1,0.5c0,0.2-0.1,0.5-0.1,0.7
				c0,0.2-0.1,0.4-0.2,0.6c-0.1,0.1-0.1,0.3-0.2,0.4c-0.1,0.1-0.1,0.2-0.2,0.3c-0.1,0.1-0.2,0.1-0.3,0.2c-0.1,0-0.2,0-0.3,0
				c-0.2,0-0.3-0.1-0.4-0.2c-0.1-0.1-0.2-0.2-0.2-0.3c0-0.1-0.1-0.2-0.1-0.4c0-0.1-0.1-0.3-0.1-0.4c0-0.1-0.1-0.2-0.1-0.4
				c0-0.1-0.1-0.2-0.1-0.3c-0.1-0.1-0.1-0.2-0.2-0.2c-0.1-0.1-0.2-0.1-0.4-0.1c-0.1,0-0.2,0-0.3,0c-0.1,0-0.2,0-0.3,0.1
				c-0.1,0-0.2,0.1-0.2,0.2C48.2,12.8,48.2,12.9,48.2,13z M49.1,13.6c0-0.1,0-0.2-0.1-0.3c-0.1-0.1-0.1-0.1-0.2-0.1
				c-0.1,0-0.2,0-0.3,0.1c-0.1,0.1-0.1,0.1-0.1,0.2s0,0.2,0.1,0.3c0.1,0.1,0.1,0.1,0.2,0.1c0.1,0,0.2,0,0.3-0.1S49.1,13.7,49.1,13.6
				z"/>
		</g>
		<g>
			<path d="M54.3,11.6c0.1,0,0.1,0,0.1,0c0,0,0.1,0,0.1,0c0.1,0,0.2,0.1,0.3,0.2C55,11.8,55,11.9,55,12c0,0.1,0.1,0.2,0.1,0.3
				c0,0.1,0,0.2-0.1,0.3c0,0.1-0.1,0.2-0.2,0.3c-0.1,0.1-0.1,0.1-0.2,0.2c-0.1,0-0.2,0.1-0.3,0.1c-0.1,0-0.2,0-0.3,0
				c-0.1-0.1-0.3-0.1-0.4-0.2c-0.1-0.1-0.2-0.2-0.2-0.3c0-0.1-0.1-0.2,0-0.4c0-0.1,0-0.3,0.1-0.4c0.1-0.2,0.2-0.3,0.3-0.4
				c0.1-0.1,0.3-0.2,0.5-0.3c0.2-0.1,0.4-0.1,0.6-0.1c0.2,0,0.4,0,0.6,0.1c0.2,0.1,0.4,0.2,0.6,0.3c0.2,0.1,0.3,0.3,0.4,0.5
				c0.1,0.2,0.2,0.4,0.2,0.6c0,0.2,0,0.4-0.1,0.6l-0.8,2.1c0,0,0,0,0,0.1c0,0,0,0.1-0.1,0.1s-0.1,0.1-0.1,0.2c0,0.1-0.1,0.1-0.1,0.2
				c0,0.1-0.1,0.1-0.1,0.1c0,0,0,0.1-0.1,0.1l-0.6-0.2c0,0,0-0.1,0.1-0.1c0-0.1,0.1-0.1,0.2-0.2c0.1-0.1,0.1-0.2,0.2-0.3
				s0.1-0.2,0.1-0.2l0.8-2.1c0-0.1,0-0.2,0-0.4c0-0.1-0.1-0.2-0.2-0.3c-0.1-0.1-0.2-0.2-0.3-0.3c-0.1-0.1-0.2-0.2-0.4-0.2
				c-0.1,0-0.2-0.1-0.3-0.1c-0.1,0-0.2,0-0.3,0c-0.1,0-0.2,0-0.2,0C54.4,11.5,54.4,11.5,54.3,11.6z M54.7,12.4c0-0.1,0-0.2,0-0.3
				c0-0.1-0.1-0.1-0.2-0.2c-0.1,0-0.2,0-0.3,0c-0.1,0-0.2,0.1-0.2,0.2c0,0.1,0,0.2,0,0.3c0,0.1,0.1,0.1,0.2,0.2c0.1,0,0.2,0,0.3,0
				C54.6,12.6,54.6,12.5,54.7,12.4z"/>
		</g>
		<g>
			<path d="M60.5,17.1c-0.2,0.3-0.3,0.4-0.6,0.6c-0.2,0.1-0.4,0.2-0.7,0.2c-0.2,0-0.5,0-0.7-0.1c-0.2-0.1-0.5-0.2-0.7-0.3
				c-0.1-0.1-0.2-0.1-0.3-0.2c-0.1-0.1-0.2-0.2-0.3-0.3c-0.1-0.1-0.2-0.2-0.3-0.4c-0.1-0.1-0.1-0.3-0.2-0.4c0-0.1-0.1-0.3,0-0.4
				c0-0.1,0.1-0.3,0.1-0.4c0.1-0.1,0.1-0.2,0.2-0.3c0.1-0.1,0.2-0.1,0.3-0.1c0.1,0,0.2,0,0.3,0c0.1,0,0.2,0.1,0.3,0.1
				c0.2,0.1,0.3,0.3,0.3,0.5c0,0.2,0,0.4-0.1,0.6c-0.1,0.2-0.2,0.3-0.4,0.4c-0.1,0.1-0.3,0.1-0.5,0c0,0.1,0.1,0.1,0.1,0.2
				c0.1,0.1,0.1,0.1,0.2,0.2c0.1,0.1,0.1,0.1,0.2,0.2c0.1,0,0.1,0.1,0.2,0.1c0.2,0.1,0.3,0.2,0.5,0.3c0.2,0.1,0.4,0.1,0.5,0.1
				c0.2,0,0.3,0,0.5-0.1c0.2-0.1,0.3-0.2,0.4-0.4l0.7-1.1c0.1-0.2,0.2-0.4,0.2-0.6c0-0.2,0-0.4-0.1-0.5c-0.1-0.2-0.2-0.3-0.3-0.4
				c-0.1-0.1-0.3-0.3-0.5-0.3c-0.1,0-0.1-0.1-0.2-0.1c-0.1,0-0.2-0.1-0.3-0.1s-0.2-0.1-0.3-0.1c-0.1,0-0.2,0-0.3,0
				c-0.1,0-0.2,0-0.3,0.1c-0.1,0-0.2,0.1-0.2,0.2l-0.5-0.3c0.1-0.1,0.2-0.3,0.3-0.3c0.1-0.1,0.2-0.1,0.4-0.2c0.1,0,0.3,0,0.4,0
				c0.2,0,0.3,0,0.4,0.1c0.1,0,0.3,0.1,0.4,0.1c0.1,0.1,0.3,0.1,0.4,0.2c0.2,0.1,0.4,0.3,0.6,0.5c0.2,0.2,0.3,0.4,0.4,0.6
				c0.1,0.2,0.1,0.5,0.1,0.7s-0.1,0.5-0.2,0.8L60.5,17.1z M57.9,15.7c0.1-0.1,0.1-0.2,0-0.3c0-0.1-0.1-0.2-0.2-0.2
				c-0.1-0.1-0.2-0.1-0.3,0c-0.1,0-0.2,0.1-0.2,0.2c-0.1,0.1-0.1,0.2,0,0.3c0,0.1,0.1,0.2,0.2,0.2c0.1,0.1,0.2,0.1,0.3,0
				C57.8,15.9,57.8,15.8,57.9,15.7z"/>
		</g>
	</g>
	<g>
		<g>
			<path d="M20.4,51.4l-1.2-2.6l3.5-1.7l1.2,2.5l-0.3,0.2l-1-2.1l-1.2,0.6l0.9,2l-0.3,0.2l-0.9-2l-1.3,0.6l1,2.2L20.4,51.4z"/>
			<path d="M20.4,51.6L19,48.8l3.7-1.8l1.3,2.7L23.5,50l-1-2.1l-1,0.5l0.9,2l-0.5,0.2l-0.9-2l-1.1,0.5l1,2.2L20.4,51.6z M19.3,48.9
				l1.2,2.4l0.2-0.1l-1-2.2l1.5-0.7l0.9,2l0.2-0.1l-0.9-2l1.4-0.7l1,2.1l0.2-0.1l-1.1-2.3L19.3,48.9z"/>
		</g>
		<g>
			<path d="M22.3,54.4l-1.3-2l3.3-2.1l0.2,0.4l-3,1.9l1.1,1.6L22.3,54.4z"/>
			<path d="M22.2,54.5l-1.4-2.2l3.4-2.2l0.3,0.5l-3,1.9l1.1,1.6L22.2,54.5z M21.1,52.4l1.2,1.9l0.2-0.1l-1.1-1.6l3-1.9l-0.1-0.2
				L21.1,52.4z"/>
		</g>
		<g>
			<path d="M24.7,57.4l-1.8-2.2l3-2.5l1.8,2.1l-0.3,0.2l-1.5-1.8l-1,0.9l1.4,1.7L25.9,56l-1.4-1.7l-1.1,0.9l1.6,1.8L24.7,57.4z"/>
			<path d="M24.7,57.5l-2-2.3l3.1-2.6l1.9,2.3l-0.4,0.4l-1.5-1.8L25,54.1l1.4,1.7l-0.4,0.4l-1.4-1.7l-0.9,0.8l1.6,1.8L24.7,57.5z
				 M23,55.2l1.7,2l0.1-0.1l-1.6-1.8l1.2-1l1.4,1.7l0.1-0.1l-1.4-1.7l1.2-1l1.5,1.8l0.1-0.1l-1.7-2L23,55.2z"/>
		</g>
		<g>
			<path d="M29.4,58c0.2-0.5,0.2-1-0.3-1.3c-0.7-0.6-1.4-0.5-2.1,0.3c-0.7,0.8-0.7,1.5-0.1,2.1c0.5,0.4,1,0.4,1.5,0l0.3,0.3
				c-0.7,0.5-1.3,0.5-2-0.1c-0.9-0.8-0.9-1.7,0-2.7c0.9-0.9,1.8-1,2.7-0.3c0.6,0.5,0.7,1.1,0.4,1.8L29.4,58z"/>
			<path d="M27.7,59.9c-0.4,0-0.7-0.2-1.1-0.5c-0.9-0.9-0.9-1.8,0-2.9c0.9-1,1.9-1.1,2.8-0.3c0.6,0.6,0.8,1.2,0.4,1.9l0,0.1L29.2,58
				l0-0.1c0.2-0.5,0.1-0.9-0.3-1.2c-0.6-0.5-1.3-0.4-2,0.3c-0.7,0.7-0.7,1.4-0.1,2c0.4,0.4,0.9,0.4,1.4,0l0.1-0.1l0.4,0.5l-0.1,0.1
				C28.4,59.7,28,59.9,27.7,59.9z M28.2,55.9c-0.5,0-0.9,0.2-1.4,0.7c-0.8,1-0.9,1.8,0,2.6c0.6,0.5,1.2,0.5,1.8,0.1l-0.1-0.2
				c-0.6,0.4-1.1,0.3-1.5-0.1c-0.7-0.7-0.6-1.4,0.1-2.2c0.8-0.8,1.5-0.9,2.2-0.3c0.4,0.4,0.6,0.9,0.3,1.4l0.2,0.1
				c0.3-0.6,0.1-1.2-0.4-1.6C28.9,56.1,28.5,55.9,28.2,55.9z"/>
		</g>
		<g>
			<path d="M33,59.6L32,58.9l-2,2.9l-0.4-0.2l2-2.9l-1.1-0.7l0.2-0.3l2.5,1.7L33,59.6z"/>
			<path d="M30,61.9l-0.5-0.4l2-2.9l-1.1-0.7l0.3-0.5l2.7,1.8l-0.3,0.5L32,59L30,61.9z M29.8,61.5l0.2,0.1l2-2.9l1.1,0.7l0.1-0.2
				l-2.4-1.6l-0.1,0.2l1.1,0.7L29.8,61.5z"/>
		</g>
		<g>
			<path d="M34.9,64.5l-0.5-0.2c0,0,0-0.1,0-0.2c0-0.1,0-0.2,0-0.2c0-0.1,0-0.2,0-0.3s0-0.2,0-0.3c0-0.1,0-0.2,0-0.3
				c0-0.1,0-0.1,0-0.2c0-0.1-0.1-0.3-0.1-0.4c0-0.1-0.1-0.2-0.1-0.2c0-0.1-0.1-0.1-0.1-0.1S33.9,62,33.8,62l-0.8-0.4l-0.8,1.6
				L31.9,63l1.7-3.5l1.8,0.9c0.1,0.1,0.3,0.2,0.4,0.3c0.1,0.1,0.2,0.2,0.2,0.3c0,0.1,0.1,0.3,0.1,0.4c0,0.1,0,0.3-0.1,0.4
				c-0.1,0.2-0.2,0.4-0.4,0.5c-0.2,0.1-0.4,0.1-0.7,0.1l-0.4,0c0.1,0.1,0.1,0.2,0.2,0.3c0,0.1,0.1,0.2,0.1,0.3
				c0,0.1,0.1,0.2,0.1,0.3c0,0.1,0,0.3,0.1,0.4c0,0.2,0,0.4,0.1,0.6C34.9,64.3,34.9,64.4,34.9,64.5z M35.5,61.6
				c0-0.1,0.1-0.2,0.1-0.2c0-0.1,0-0.1,0-0.2c0-0.1-0.1-0.1-0.1-0.2c-0.1-0.1-0.1-0.2-0.2-0.3L33.9,60l-0.6,1.2l1.2,0.6
				c0.1,0,0.2,0.1,0.3,0.1c0.1,0,0.2,0,0.3,0c0.1,0,0.2-0.1,0.3-0.1C35.4,61.7,35.4,61.7,35.5,61.6z"/>
			<path d="M35.1,64.6l-0.7-0.4l0-0.1c0,0,0-0.1,0-0.2c0-0.1,0-0.2,0-0.2s0-0.2,0-0.3c0-0.1,0-0.2,0-0.3c0-0.1,0-0.2,0-0.3
				c0-0.1,0-0.1,0-0.2c0-0.1-0.1-0.3-0.1-0.3c0-0.1-0.1-0.2-0.1-0.2c0,0-0.1-0.1-0.1-0.1c0,0-0.1-0.1-0.1-0.1l-0.7-0.3l-0.8,1.6
				l-0.6-0.3l1.8-3.7l1.9,0.9c0.2,0.1,0.3,0.2,0.4,0.3c0.1,0.1,0.2,0.2,0.2,0.4c0.1,0.1,0.1,0.3,0.1,0.4c0,0.2-0.1,0.3-0.1,0.5
				c-0.1,0.2-0.3,0.4-0.5,0.5c-0.2,0.1-0.4,0.1-0.7,0.1l-0.2,0c0,0,0,0.1,0.1,0.1c0,0.1,0.1,0.2,0.1,0.3c0,0.1,0.1,0.2,0.1,0.3
				c0,0.1,0,0.3,0.1,0.4c0,0.2,0,0.4,0.1,0.6c0,0.2,0,0.3,0,0.3L35.1,64.6z M34.5,64.2l0.3,0.2c0-0.1,0-0.1,0-0.2
				c0-0.2,0-0.3-0.1-0.6c0-0.2,0-0.3,0-0.4c0-0.1,0-0.2-0.1-0.3c0-0.1-0.1-0.2-0.1-0.2c0-0.1-0.1-0.2-0.2-0.3l-0.1-0.2l0.6,0.1
				c0.2,0,0.4,0,0.6-0.1c0.2-0.1,0.3-0.2,0.4-0.4c0.1-0.1,0.1-0.3,0.1-0.4c0-0.1,0-0.3-0.1-0.4c0-0.1-0.1-0.2-0.2-0.3
				c-0.1-0.1-0.2-0.2-0.3-0.2l-1.7-0.8L32,63l0.2,0.1l0.8-1.6l0.8,0.4c0.1,0,0.1,0.1,0.2,0.1c0,0,0.1,0.1,0.1,0.2
				c0,0.1,0.1,0.1,0.1,0.2c0,0.1,0.1,0.2,0.1,0.4c0,0.1,0,0.1,0,0.2c0,0.1,0,0.2,0,0.3c0,0.1,0,0.2,0,0.3c0,0.1,0,0.2,0,0.3
				c0,0.1,0,0.2,0,0.2C34.5,64.1,34.5,64.1,34.5,64.2z M34.9,62c0,0-0.1,0-0.1,0c-0.1,0-0.2,0-0.3-0.1l-1.3-0.6l0.7-1.4l1.4,0.7
				c0.1,0.1,0.2,0.2,0.3,0.3c0.1,0.1,0.1,0.2,0.1,0.2c0,0.1,0,0.2,0,0.2c0,0.1,0,0.2-0.1,0.3c0,0.1-0.1,0.2-0.2,0.2
				c-0.1,0.1-0.2,0.1-0.3,0.1C35,62,34.9,62,34.9,62z M33.4,61.2l1.1,0.5c0.1,0,0.2,0.1,0.3,0.1c0.1,0,0.2,0,0.3,0
				c0.1,0,0.2-0.1,0.2-0.1c0.1,0,0.1-0.1,0.1-0.2l0,0c0-0.1,0.1-0.2,0.1-0.2c0-0.1,0-0.1,0-0.2c0-0.1-0.1-0.1-0.1-0.2
				c-0.1-0.1-0.1-0.2-0.2-0.2l-1.2-0.6L33.4,61.2z"/>
		</g>
		<g>
			<path d="M36.3,64.9l-0.5-0.2l1.3-3.7l0.5,0.2L36.3,64.9z"/>
			<path d="M36.3,65l-0.6-0.2l1.4-3.9l0.6,0.2L36.3,65z M35.9,64.7l0.3,0.1l1.3-3.5l-0.3-0.1L35.9,64.7z"/>
		</g>
		<g>
			<path d="M40.7,63.3c0-0.6-0.3-0.9-0.9-1.1c-0.9-0.2-1.4,0.2-1.7,1.2c-0.3,1,0,1.7,0.9,1.9c0.6,0.1,1-0.1,1.3-0.7l0.4,0.2
				c-0.4,0.8-0.9,1-1.8,0.9c-1.1-0.3-1.6-1.1-1.3-2.4c0.3-1.2,1.1-1.7,2.3-1.5c0.8,0.2,1.2,0.7,1.2,1.5L40.7,63.3z"/>
			<path d="M39.5,65.9c-0.2,0-0.3,0-0.5-0.1c-1.2-0.3-1.7-1.2-1.3-2.5c0.4-1.3,1.2-1.8,2.4-1.6c0.8,0.2,1.2,0.7,1.3,1.5l0,0.1
				l-0.6,0l0-0.1c0-0.5-0.3-0.8-0.8-1c-0.8-0.2-1.3,0.2-1.6,1.2c-0.3,1,0,1.6,0.8,1.8c0.6,0.1,1-0.1,1.2-0.6l0-0.1l0.6,0.3l0,0.1
				C40.6,65.6,40.1,65.9,39.5,65.9z M39.4,61.9c-0.8,0-1.3,0.5-1.6,1.5c-0.3,1.2,0.1,2,1.2,2.3c0.8,0.2,1.3-0.1,1.6-0.7l-0.2-0.1
				c-0.3,0.6-0.8,0.8-1.4,0.6c-0.9-0.3-1.2-1-0.9-2c0.3-1.1,0.9-1.5,1.8-1.3c0.6,0.1,0.9,0.5,0.9,1.1l0.2,0C41,62.6,40.7,62.2,40,62
				C39.8,61.9,39.6,61.9,39.4,61.9z"/>
		</g>
		<g>
			<path d="M42.1,66.3l-0.5-0.1l0.5-3.9l0.5,0.1L42.1,66.3z"/>
			<path d="M42.2,66.4l-0.7-0.1l0.6-4.1l0.7,0.1L42.2,66.4z M41.7,66.2l0.3,0l0.5-3.7l-0.3,0L41.7,66.2z"/>
		</g>
		<g>
			<path d="M46.2,63.1L44.9,63l-0.2,3.5l-0.4,0l0.2-3.5l-1.3-0.1l0-0.4l3,0.1L46.2,63.1z"/>
			<path d="M44.8,66.6l-0.6,0l0.2-3.5L43.1,63l0-0.6l3.2,0.2l0,0.6L45,63.1L44.8,66.6z M44.4,66.4l0.3,0l0.2-3.5l1.3,0.1l0-0.2
				l-2.8-0.1l0,0.2l1.3,0.1L44.4,66.4z"/>
		</g>
		<g>
			<path d="M49.8,66.4L47,66.6l-0.3-3.9l2.8-0.2l0,0.4L47.1,63l0.1,1.3l2.2-0.2l0,0.4l-2.2,0.2l0.1,1.4l2.4-0.2L49.8,66.4z"/>
			<path d="M46.9,66.7l-0.3-4.1l3-0.2l0,0.6l-2.3,0.2l0.1,1.1l2.2-0.2l0,0.6l-2.2,0.2l0.1,1.2l2.4-0.2l0,0.6L46.9,66.7z M46.7,62.8
				l0.3,3.7l2.7-0.2l0-0.2l-2.4,0.2l-0.1-1.6l2.2-0.2l0-0.2l-2.2,0.2L47,62.9l2.3-0.2l0-0.2L46.7,62.8z"/>
		</g>
		<g>
			<path d="M56.3,62.6c0.1,0.3,0.2,0.6,0.2,0.8c0,0.3,0,0.5-0.1,0.7c-0.1,0.2-0.2,0.4-0.3,0.5c-0.2,0.1-0.4,0.3-0.6,0.3l-1.5,0.5
				l-1.3-3.7l1.6-0.5c0.2-0.1,0.4-0.1,0.7-0.1c0.2,0,0.4,0.1,0.6,0.2c0.2,0.1,0.3,0.3,0.5,0.5C56,62.1,56.2,62.4,56.3,62.6z
				 M55.8,62.8c-0.1-0.2-0.2-0.4-0.3-0.6c-0.1-0.2-0.2-0.3-0.4-0.4c-0.1-0.1-0.3-0.2-0.4-0.2c-0.1,0-0.3,0-0.5,0.1L53.2,62l1,2.9
				l1-0.3c0.2-0.1,0.3-0.1,0.4-0.3s0.2-0.3,0.3-0.4c0.1-0.2,0.1-0.3,0.1-0.5C55.9,63.2,55.9,63,55.8,62.8z"/>
			<path d="M53.8,65.6l-1.3-3.9l1.6-0.6c0.2-0.1,0.5-0.1,0.7-0.1c0.2,0,0.4,0.1,0.6,0.2c0.2,0.1,0.4,0.3,0.5,0.5
				c0.2,0.2,0.3,0.5,0.4,0.7l0,0c0.1,0.3,0.2,0.6,0.2,0.8c0,0.3,0,0.5-0.1,0.7c-0.1,0.2-0.2,0.4-0.4,0.6c-0.2,0.2-0.4,0.3-0.6,0.4
				L53.8,65.6z M52.7,61.9l1.2,3.5l1.4-0.5c0.2-0.1,0.4-0.2,0.6-0.3c0.1-0.1,0.3-0.3,0.3-0.5c0.1-0.2,0.1-0.4,0.1-0.6
				c0-0.2-0.1-0.5-0.2-0.8c-0.1-0.3-0.2-0.5-0.3-0.7c-0.1-0.2-0.3-0.3-0.5-0.5c-0.2-0.1-0.4-0.2-0.6-0.2c-0.2,0-0.4,0-0.6,0.1
				L52.7,61.9z M54.1,65.1L53.1,62l1.2-0.4c0.2-0.1,0.4-0.1,0.5-0.1c0.2,0,0.3,0.1,0.5,0.2c0.1,0.1,0.3,0.2,0.4,0.4
				c0.1,0.2,0.2,0.4,0.3,0.6l0,0C56,63,56,63.2,56,63.4c0,0.2,0,0.4-0.1,0.6c-0.1,0.2-0.2,0.3-0.3,0.5c-0.1,0.1-0.3,0.2-0.5,0.3
				L54.1,65.1z M53.3,62.1l0.9,2.8l0.9-0.3c0.2-0.1,0.3-0.1,0.4-0.2c0.1-0.1,0.2-0.2,0.2-0.4c0-0.1,0.1-0.3,0.1-0.5
				c0-0.2-0.1-0.4-0.1-0.6l0,0c-0.1-0.2-0.2-0.4-0.3-0.6c-0.1-0.2-0.2-0.3-0.3-0.4c-0.1-0.1-0.2-0.1-0.4-0.2c-0.1,0-0.3,0-0.4,0
				L53.3,62.1z"/>
		</g>
		<g>
			<path d="M60,61.4c0.1,0.2,0.2,0.4,0.2,0.6c0,0.2,0,0.4-0.1,0.5c-0.1,0.2-0.2,0.3-0.3,0.5c-0.1,0.1-0.3,0.3-0.5,0.4
				c-0.2,0.1-0.4,0.2-0.6,0.2c-0.2,0-0.4,0-0.5,0c-0.2,0-0.3-0.1-0.5-0.3c-0.1-0.1-0.3-0.3-0.4-0.5l-1.2-2.3l0.4-0.2l1.2,2.3
				c0.1,0.1,0.2,0.3,0.3,0.4c0.1,0.1,0.2,0.2,0.3,0.2c0.1,0,0.2,0,0.4,0c0.1,0,0.3-0.1,0.4-0.1c0.3-0.2,0.5-0.4,0.6-0.6
				c0.1-0.2,0-0.5-0.1-0.8l-1.2-2.2l0.4-0.2L60,61.4z"/>
			<path d="M58.5,63.7c-0.1,0-0.2,0-0.3,0c-0.2,0-0.3-0.1-0.5-0.3c-0.1-0.1-0.3-0.3-0.4-0.5L56,60.5l0.6-0.3l1.2,2.3
				c0.1,0.1,0.2,0.2,0.2,0.3c0.1,0.1,0.2,0.1,0.3,0.2c0.1,0,0.2,0,0.3,0c0.1,0,0.3-0.1,0.4-0.1c0.3-0.2,0.5-0.3,0.5-0.6
				c0.1-0.2,0-0.5-0.1-0.8l-1.2-2.3l0.6-0.3l1.2,2.3c0.1,0.2,0.2,0.4,0.2,0.6c0,0.2,0,0.4-0.1,0.6c-0.1,0.2-0.2,0.3-0.3,0.5
				c-0.1,0.1-0.3,0.3-0.5,0.4c-0.2,0.1-0.4,0.2-0.6,0.2C58.7,63.7,58.6,63.7,58.5,63.7z M56.3,60.6l1.1,2.2c0.1,0.2,0.2,0.3,0.3,0.5
				c0.1,0.1,0.3,0.2,0.4,0.2c0.2,0,0.3,0,0.5,0c0.2,0,0.4-0.1,0.6-0.2c0.2-0.1,0.4-0.2,0.5-0.4c0.1-0.1,0.2-0.3,0.3-0.4
				c0.1-0.2,0.1-0.3,0.1-0.5c0-0.2-0.1-0.4-0.2-0.5l-1.1-2.2l-0.2,0.1l1.1,2.1c0.2,0.3,0.2,0.7,0.1,0.9c-0.1,0.3-0.3,0.5-0.6,0.7
				c-0.2,0.1-0.3,0.1-0.5,0.2c-0.1,0-0.3,0-0.4,0c-0.1,0-0.3-0.1-0.4-0.2c-0.1-0.1-0.2-0.2-0.3-0.4l-1.1-2.2L56.3,60.6z"/>
		</g>
		<g>
			<path d="M66,58.6l-1.8,1.6l-2.6-3l0.3-0.3l2.3,2.7l1.5-1.3L66,58.6z"/>
			<path d="M64.1,60.3l-2.7-3.1l0.5-0.4l2.3,2.7l1.5-1.3l0.4,0.4L64.1,60.3z M61.7,57.2l2.4,2.8l1.7-1.5l-0.1-0.1l-1.5,1.3l-2.3-2.7
				L61.7,57.2z"/>
		</g>
		<g>
			<path d="M66.4,58.2l-0.8-1.5L64.7,55l-0.3-0.5l0.4-0.4l0.5,0.2l1.8,0.7l1.6,0.6L68.4,56l-1.2-0.5l-1.1,1.2l0.6,1.1L66.4,58.2z
				 M65.9,56.4l0.9-1L65,54.7L65.9,56.4z"/>
			<path d="M66.4,58.4l-2-3.9l0.5-0.5l4.1,1.6l-0.5,0.5l-1.2-0.5l-1,1.1l0.6,1.1L66.4,58.4z M64.6,54.5l1.8,3.5l0.2-0.2L66,56.7
				l1.2-1.3l1.2,0.5l0.2-0.2l-3.7-1.4L64.6,54.5z M65.9,56.5l-1.1-2.1l2.2,0.9L65.9,56.5z M65.2,54.8l0.7,1.4l0.7-0.8L65.2,54.8z"/>
		</g>
		<g>
			<path d="M69.4,51.3c0.3,0.2,0.5,0.4,0.6,0.6c0.2,0.2,0.3,0.4,0.3,0.7c0.1,0.2,0.1,0.5,0,0.7c-0.1,0.2-0.2,0.5-0.3,0.7
				c-0.2,0.2-0.3,0.4-0.5,0.5c-0.2,0.1-0.4,0.2-0.7,0.3c-0.2,0-0.5,0-0.7,0c-0.3-0.1-0.5-0.2-0.7-0.3c-0.3-0.2-0.5-0.4-0.6-0.6
				c-0.2-0.2-0.3-0.4-0.3-0.7c-0.1-0.2-0.1-0.5,0-0.7c0-0.2,0.2-0.5,0.3-0.7c0.1-0.2,0.2-0.3,0.3-0.4c0.1-0.1,0.3-0.2,0.4-0.3
				c0.1-0.1,0.3-0.1,0.5-0.1c0.2,0,0.3,0,0.5,0c0.2,0,0.3,0.1,0.5,0.1C69,51.1,69.2,51.2,69.4,51.3z M69.1,51.7
				c-0.2-0.1-0.4-0.2-0.6-0.3c-0.2-0.1-0.4-0.1-0.6-0.1c-0.2,0-0.4,0.1-0.5,0.2c-0.2,0.1-0.3,0.2-0.4,0.4c-0.1,0.2-0.2,0.3-0.2,0.5
				c0,0.2,0,0.4,0,0.5c0.1,0.2,0.1,0.4,0.3,0.5c0.1,0.2,0.3,0.3,0.5,0.5c0.2,0.1,0.4,0.2,0.6,0.3c0.2,0.1,0.4,0.1,0.6,0.1
				c0.2,0,0.4-0.1,0.5-0.2c0.2-0.1,0.3-0.2,0.4-0.4c0.1-0.2,0.2-0.3,0.2-0.5c0-0.2,0-0.4,0-0.5c-0.1-0.2-0.1-0.3-0.3-0.5
				S69.3,51.8,69.1,51.7z"/>
			<path d="M68.5,54.8c-0.2,0-0.3,0-0.5-0.1c-0.3-0.1-0.5-0.2-0.8-0.3c-0.3-0.2-0.5-0.4-0.7-0.6c-0.2-0.2-0.3-0.5-0.3-0.7
				c-0.1-0.2-0.1-0.5,0-0.8c0.1-0.3,0.2-0.5,0.3-0.7c0.1-0.2,0.2-0.3,0.4-0.4c0.1-0.1,0.3-0.2,0.4-0.3c0.2-0.1,0.3-0.1,0.5-0.1
				c0.2,0,0.3,0,0.5,0c0.2,0,0.3,0.1,0.5,0.1c0.2,0.1,0.3,0.2,0.5,0.3h0c0.3,0.2,0.5,0.4,0.6,0.6c0.2,0.2,0.3,0.5,0.3,0.7
				c0.1,0.2,0.1,0.5,0,0.7c-0.1,0.3-0.2,0.5-0.3,0.7c-0.2,0.2-0.3,0.4-0.6,0.6c-0.2,0.1-0.5,0.2-0.7,0.3
				C68.7,54.8,68.6,54.8,68.5,54.8z M68.1,51c-0.1,0-0.2,0-0.2,0c-0.2,0-0.3,0.1-0.4,0.1c-0.1,0.1-0.3,0.1-0.4,0.2
				c-0.1,0.1-0.2,0.2-0.3,0.4c-0.2,0.2-0.3,0.4-0.3,0.7c0,0.2,0,0.5,0,0.7c0.1,0.2,0.2,0.4,0.3,0.6c0.2,0.2,0.4,0.4,0.6,0.6
				c0.2,0.2,0.5,0.3,0.7,0.3c0.2,0.1,0.5,0.1,0.7,0c0.2,0,0.4-0.1,0.6-0.2c0.2-0.1,0.4-0.3,0.5-0.5c0.2-0.2,0.3-0.5,0.3-0.7
				c0-0.2,0-0.4,0-0.7c0-0.2-0.1-0.4-0.3-0.6c-0.1-0.2-0.3-0.4-0.6-0.6h0c-0.2-0.1-0.3-0.2-0.5-0.3c-0.2-0.1-0.3-0.1-0.5-0.1
				C68.3,51,68.2,51,68.1,51z M68.6,54.4c-0.1,0-0.3,0-0.5-0.1c-0.2-0.1-0.4-0.2-0.6-0.3c-0.2-0.1-0.4-0.3-0.5-0.5
				c-0.1-0.2-0.2-0.4-0.3-0.6c-0.1-0.2-0.1-0.4,0-0.6c0-0.2,0.1-0.4,0.2-0.6c0.1-0.2,0.3-0.3,0.4-0.4c0.2-0.1,0.4-0.2,0.6-0.2
				c0.2,0,0.4,0,0.6,0.1c0.2,0.1,0.4,0.2,0.6,0.3h0c0.2,0.1,0.4,0.3,0.5,0.5c0.1,0.2,0.2,0.4,0.3,0.5c0.1,0.2,0.1,0.4,0,0.6
				c0,0.2-0.1,0.4-0.2,0.6c-0.1,0.2-0.3,0.3-0.4,0.4c-0.2,0.1-0.4,0.2-0.5,0.2C68.7,54.4,68.6,54.4,68.6,54.4z M68,51.4
				c0,0-0.1,0-0.1,0c-0.2,0-0.3,0.1-0.5,0.1c-0.1,0.1-0.3,0.2-0.4,0.4c-0.1,0.2-0.2,0.3-0.2,0.5c0,0.2,0,0.3,0,0.5
				c0.1,0.2,0.1,0.3,0.3,0.5c0.1,0.2,0.3,0.3,0.5,0.4c0.2,0.1,0.4,0.2,0.5,0.3c0.2,0.1,0.4,0.1,0.5,0.1c0.2,0,0.3-0.1,0.5-0.2
				c0.1-0.1,0.3-0.2,0.4-0.4c0.1-0.2,0.2-0.3,0.2-0.5c0-0.2,0-0.3,0-0.5c0-0.2-0.1-0.3-0.3-0.5c-0.1-0.2-0.3-0.3-0.5-0.4
				c-0.2-0.1-0.4-0.2-0.6-0.3C68.3,51.4,68.2,51.4,68,51.4z"/>
		</g>
		<g>
			<path d="M71.8,48.3c0.6,0.4,0.7,1,0.4,1.8c-0.4,0.9-1.1,1.2-1.8,0.9l0.1-0.4c0.6,0.2,1.1,0,1.4-0.7c0.2-0.6,0.2-1-0.2-1.2
				c-0.3-0.2-0.7,0-1.2,0.7c-0.6,0.8-1.1,1-1.6,0.8c-0.6-0.3-0.7-0.9-0.4-1.7c0.4-0.8,1-1,1.6-0.8L70,48.1c-0.5-0.2-0.9,0-1.2,0.6
				c-0.2,0.5-0.2,0.9,0.2,1.1c0.2,0.1,0.4,0,0.6-0.2c0.2-0.2,0.4-0.5,0.6-0.7C70.8,48.3,71.3,48.1,71.8,48.3z"/>
			<path d="M70.9,51.2c-0.2,0-0.4,0-0.6-0.1l-0.1,0l0.2-0.6l0.1,0c0.6,0.2,1,0,1.3-0.6c0.2-0.6,0.2-0.9-0.2-1.1
				c-0.3-0.1-0.6,0.1-1,0.6c-0.6,0.8-1.2,1.1-1.7,0.8c-0.6-0.4-0.8-1-0.4-1.8c0.4-0.8,1-1.1,1.8-0.8l0.1,0l-0.2,0.6l-0.1,0
				c-0.4-0.1-0.8,0-1,0.5c-0.2,0.5-0.2,0.8,0.2,1c0.2,0.1,0.3,0,0.5-0.2c0.2-0.2,0.4-0.5,0.6-0.7c0.5-0.6,1.1-0.8,1.6-0.5l0,0
				c0.6,0.4,0.8,1,0.4,1.9C71.9,50.9,71.4,51.2,70.9,51.2z M70.4,51c0.7,0.2,1.2-0.1,1.6-0.9c0.3-0.8,0.2-1.3-0.4-1.7
				c-0.4-0.2-0.9,0-1.3,0.5c-0.2,0.3-0.4,0.5-0.6,0.8c-0.2,0.2-0.5,0.3-0.8,0.2c-0.4-0.3-0.5-0.7-0.2-1.2c0.3-0.6,0.7-0.8,1.2-0.6
				l0.1-0.2c-0.6-0.2-1.1,0.1-1.4,0.8c-0.3,0.7-0.2,1.3,0.3,1.6c0.4,0.2,0.9,0,1.5-0.7c0.5-0.6,0.9-0.9,1.3-0.7
				c0.4,0.2,0.5,0.7,0.2,1.3c-0.3,0.7-0.8,1-1.4,0.8L70.4,51z"/>
		</g>
	</g>
	<g>
		<g>
			<path d="M72.5,35.1l0.5,0.8l0.3,1l0.4-1.1l0.4-0.7l0.9,0.5l-0.5,0.8l-0.9,0.9L75,37h0.9v1H75l-1.2-0.2l0.9,0.9l0.4,0.7L74.2,40
				l-0.5-0.8l-0.4-1.1L73,39.2l-0.5,0.8l-0.9-0.5l0.5-0.8l0.8-0.8l-1.1,0.2h-0.9v-1h0.9l1.2,0.2l-0.8-0.8l-0.5-0.9L72.5,35.1z"/>
		</g>
	</g>
	<g>
		<g>
			<path d="M17.6,35.1l0.5,0.8l0.3,1l0.4-1.1l0.4-0.7l0.9,0.5l-0.5,0.8l-0.9,0.9l1.3-0.2h0.9v1h-0.9l-1.2-0.2l0.9,0.9l0.4,0.7
				L19.3,40l-0.5-0.8l-0.4-1.1L18,39.2l-0.5,0.8l-0.9-0.5l0.5-0.8l0.8-0.8l-1.1,0.2h-0.9v-1h0.9l1.2,0.2l-0.8-0.8l-0.5-0.9
				L17.6,35.1z"/>
		</g>
	</g>
</g>
</svg>
