<?xml version="1.0" encoding="utf-8"?>
<!-- Generator: Adobe Illustrator 22.1.0, SVG Export Plug-In . SVG Version: 6.00 Build 0)  -->
<svg version="1.1" id="Capa_1" xmlns="http://www.w3.org/2000/svg" xmlns:xlink="http://www.w3.org/1999/xlink" x="0px" y="0px"
	 viewBox="0 0 512 512" style="enable-background:new 0 0 512 512;" xml:space="preserve">
<style type="text/css">
	.st0{fill:url(#SVGID_1_);}
	.st1{fill:url(#SVGID_2_);}
	.st2{fill:url(#SVGID_3_);}
	.st3{fill:url(#SVGID_4_);}
	.st4{fill:url(#SVGID_5_);}
	.st5{fill:url(#SVGID_6_);}
	.st6{fill:url(#SVGID_7_);}
	.st7{fill:url(#SVGID_8_);}
	.st8{fill:url(#SVGID_9_);}
	.st9{fill:url(#SVGID_10_);}
	.st10{fill:url(#SVGID_11_);}
	.st11{fill:url(#SVGID_12_);}
	.st12{fill:url(#SVGID_13_);}
	.st13{fill:url(#SVGID_14_);}
	.st14{fill:url(#SVGID_15_);}
	.st15{fill:url(#SVGID_16_);}
	.st16{fill:url(#SVGID_17_);}
	.st17{fill:url(#SVGID_18_);}
	.st18{fill:url(#SVGID_19_);}
	.st19{fill:url(#SVGID_20_);}
	.st20{fill:url(#SVGID_21_);}
	.st21{fill:url(#SVGID_22_);}
	.st22{fill:url(#SVGID_23_);}
	.st23{fill:#FFFFFF;}
</style>
<g>
	<g>
		
			<linearGradient id="SVGID_1_" gradientUnits="userSpaceOnUse" x1="273.7678" y1="494.4933" x2="273.7678" y2="431.6583" gradientTransform="matrix(1.0039 0 0 -1.0039 -0.4471 513.0233)">
			<stop  offset="0" style="stop-color:#66BB00"/>
			<stop  offset="1" style="stop-color:#0B799D"/>
		</linearGradient>
		<path class="st0" d="M361.8,79.6H187V29.9C187,13.4,200.4,0,216.9,0h115c16.5,0,29.9,13.4,29.9,29.9V79.6z"/>
		
			<linearGradient id="SVGID_2_" gradientUnits="userSpaceOnUse" x1="229.0408" y1="494.4933" x2="229.0408" y2="431.6583" gradientTransform="matrix(1.0039 0 0 -1.0039 -0.4471 513.0233)">
			<stop  offset="0" style="stop-color:#90CC1C"/>
			<stop  offset="1" style="stop-color:#66BB00"/>
		</linearGradient>
		<path class="st1" d="M316.9,79.6H142.1V29.9C142.1,13.4,155.5,0,172,0h115c16.5,0,29.9,13.4,29.9,29.9V79.6z"/>
		
			<linearGradient id="SVGID_3_" gradientUnits="userSpaceOnUse" x1="231.5858" y1="490.6461" x2="414.8858" y2="-80.3129" gradientTransform="matrix(1.0039 0 0 -1.0039 -0.4471 513.0233)">
			<stop  offset="0" style="stop-color:#B9DD39"/>
			<stop  offset="1" style="stop-color:#0B799D"/>
		</linearGradient>
		<path class="st2" d="M269.3,56.7V29.9c0-16.5-13.4-29.9-29.9-29.9h-115c-16.5,0-29.9,13.4-29.9,29.9v322.4
			c0,23.5,19,42.5,42.5,42.5H463c23.5,0,42.5-19,42.5-42.5V112.2c0-23.5-19-42.5-42.5-42.5H282.3C275.1,69.7,269.3,63.9,269.3,56.7
			L269.3,56.7z"/>
		<g>
			
				<linearGradient id="SVGID_4_" gradientUnits="userSpaceOnUse" x1="373.0144" y1="401.6733" x2="387.3624" y2="390.7423" gradientTransform="matrix(1.0039 0 0 -1.0039 -0.4471 513.0233)">
				<stop  offset="0" style="stop-color:#FDBF00"/>
				<stop  offset="1" style="stop-color:#FF9100"/>
			</linearGradient>
			<path class="st3" d="M382.7,128.2h-10.2c-5.9,0-10.6-4.8-10.6-10.6v-10.2c0-5.9,4.8-10.6,10.6-10.6h10.2
				c5.9,0,10.6,4.8,10.6,10.6v10.2C393.3,123.4,388.5,128.2,382.7,128.2z"/>
			
				<linearGradient id="SVGID_5_" gradientUnits="userSpaceOnUse" x1="413.0535" y1="401.6734" x2="427.4005" y2="390.7424" gradientTransform="matrix(1.0039 0 0 -1.0039 -0.4471 513.0233)">
				<stop  offset="0" style="stop-color:#FDBF00"/>
				<stop  offset="1" style="stop-color:#FF9100"/>
			</linearGradient>
			<path class="st4" d="M422.9,128.2h-10.2c-5.9,0-10.6-4.8-10.6-10.6v-10.2c0-5.9,4.8-10.6,10.6-10.6h10.2
				c5.9,0,10.6,4.8,10.6,10.6v10.2C433.5,123.4,428.7,128.2,422.9,128.2z"/>
			
				<linearGradient id="SVGID_6_" gradientUnits="userSpaceOnUse" x1="453.0914" y1="401.6733" x2="467.4394" y2="390.7423" gradientTransform="matrix(1.0039 0 0 -1.0039 -0.4471 513.0233)">
				<stop  offset="0" style="stop-color:#FDBF00"/>
				<stop  offset="1" style="stop-color:#FF9100"/>
			</linearGradient>
			<path class="st5" d="M463,128.2h-10.2c-5.9,0-10.6-4.8-10.6-10.6v-10.2c0-5.9,4.8-10.6,10.6-10.6H463c5.9,0,10.6,4.8,10.6,10.6
				v10.2C473.7,123.4,468.9,128.2,463,128.2z"/>
		</g>
		
			<linearGradient id="SVGID_7_" gradientUnits="userSpaceOnUse" x1="292.494" y1="279.2614" x2="445.7109" y2="674.5854" gradientTransform="matrix(1.0039 0 0 -1.0039 -0.4471 513.0233)">
			<stop  offset="0" style="stop-color:#0B799D;stop-opacity:0"/>
			<stop  offset="0.3645" style="stop-color:#096380;stop-opacity:0.365"/>
			<stop  offset="0.76" style="stop-color:#084F67;stop-opacity:0.76"/>
			<stop  offset="1" style="stop-color:#07485E"/>
		</linearGradient>
		<path class="st6" d="M463,394.8c23.5,0,42.5-19,42.5-42.5V197.4L451,142.8c-7.8-8.9-19.2-14.5-32-14.5H369l-58-58.6h-28.8H94.6
			v282.2c0,23.7,19.2,43,43,43L463,394.8L463,394.8z"/>
		
			<linearGradient id="SVGID_8_" gradientUnits="userSpaceOnUse" x1="299.3198" y1="169.4922" x2="299.3198" y2="86.8353" gradientTransform="matrix(1.0039 0 0 -1.0039 -0.4471 513.0233)">
			<stop  offset="0" style="stop-color:#0B799D;stop-opacity:0"/>
			<stop  offset="0.3645" style="stop-color:#096380;stop-opacity:0.365"/>
			<stop  offset="0.76" style="stop-color:#084F67;stop-opacity:0.76"/>
			<stop  offset="1" style="stop-color:#07485E"/>
		</linearGradient>
		<path class="st7" d="M94.6,305.3v47c0,23.5,19,42.5,42.5,42.5H463c23.5,0,42.5-19,42.5-42.5v-47H94.6z"/>
	</g>
	<g>
		
			<linearGradient id="SVGID_9_" gradientUnits="userSpaceOnUse" x1="229.8938" y1="436.1472" x2="229.8938" y2="373.3112" gradientTransform="matrix(1.0039 0 0 -1.0039 -0.4471 513.0233)">
			<stop  offset="0" style="stop-color:#0095FF"/>
			<stop  offset="1" style="stop-color:#0B799D"/>
		</linearGradient>
		<path class="st8" d="M317.7,138.2H143V88.4c0-16.5,13.4-29.9,29.9-29.9h115c16.5,0,29.9,13.4,29.9,29.9L317.7,138.2L317.7,138.2z"
			/>
		
			<linearGradient id="SVGID_10_" gradientUnits="userSpaceOnUse" x1="185.1668" y1="436.1472" x2="185.1668" y2="373.3112" gradientTransform="matrix(1.0039 0 0 -1.0039 -0.4471 513.0233)">
			<stop  offset="0" style="stop-color:#48B2E3"/>
			<stop  offset="1" style="stop-color:#0095FF"/>
		</linearGradient>
		<path class="st9" d="M272.8,138.2H98.1V88.4c0-16.5,13.4-29.9,29.9-29.9h115c16.5,0,29.9,13.4,29.9,29.9L272.8,138.2L272.8,138.2z
			"/>
		
			<linearGradient id="SVGID_11_" gradientUnits="userSpaceOnUse" x1="79.5111" y1="397.249" x2="342.4121" y2="134.348" gradientTransform="matrix(1.0039 0 0 -1.0039 -0.4471 513.0233)">
			<stop  offset="0" style="stop-color:#76E2F8"/>
			<stop  offset="1" style="stop-color:#48B2E3"/>
		</linearGradient>
		<path class="st10" d="M225.3,115.3V88.4c0-16.5-13.4-29.9-29.9-29.9h-115c-16.5,0-29.9,13.4-29.9,29.9v322.4
			c0,23.5,19,42.5,42.5,42.5h325.9c23.5,0,42.5-19,42.5-42.5V170.8c0-23.5-19-42.5-42.5-42.5H238.3
			C231.1,128.3,225.3,122.4,225.3,115.3L225.3,115.3z"/>
		<g>
			
				<linearGradient id="SVGID_12_" gradientUnits="userSpaceOnUse" x1="329.139" y1="343.3268" x2="343.487" y2="332.3948" gradientTransform="matrix(1.0039 0 0 -1.0039 -0.4471 513.0233)">
				<stop  offset="0" style="stop-color:#EDF5FF"/>
				<stop  offset="1" style="stop-color:#D5E8FE"/>
			</linearGradient>
			<path class="st11" d="M338.6,186.8h-10.2c-5.9,0-10.6-4.8-10.6-10.6v-10.2c0-5.9,4.8-10.6,10.6-10.6h10.2
				c5.9,0,10.6,4.8,10.6,10.6v10.2C349.2,182,344.5,186.8,338.6,186.8z"/>
			
				<linearGradient id="SVGID_13_" gradientUnits="userSpaceOnUse" x1="369.1781" y1="343.3269" x2="383.5251" y2="332.395" gradientTransform="matrix(1.0039 0 0 -1.0039 -0.4471 513.0233)">
				<stop  offset="0" style="stop-color:#EDF5FF"/>
				<stop  offset="1" style="stop-color:#D5E8FE"/>
			</linearGradient>
			<path class="st12" d="M378.8,186.8h-10.2c-5.9,0-10.6-4.8-10.6-10.6v-10.2c0-5.9,4.8-10.6,10.6-10.6h10.2
				c5.9,0,10.6,4.8,10.6,10.6v10.2C389.4,182,384.7,186.8,378.8,186.8z"/>
			
				<linearGradient id="SVGID_14_" gradientUnits="userSpaceOnUse" x1="409.216" y1="343.3268" x2="423.564" y2="332.3948" gradientTransform="matrix(1.0039 0 0 -1.0039 -0.4471 513.0233)">
				<stop  offset="0" style="stop-color:#EDF5FF"/>
				<stop  offset="1" style="stop-color:#D5E8FE"/>
			</linearGradient>
			<path class="st13" d="M419,186.8h-10.2c-5.9,0-10.6-4.8-10.6-10.6v-10.2c0-5.9,4.8-10.6,10.6-10.6H419c5.9,0,10.6,4.8,10.6,10.6
				v10.2C429.6,182,424.9,186.8,419,186.8z"/>
		</g>
		
			<linearGradient id="SVGID_15_" gradientUnits="userSpaceOnUse" x1="250.6069" y1="55.2875" x2="259.1869" y2="386.7865" gradientTransform="matrix(1.0039 0 0 -1.0039 -0.4471 513.0233)">
			<stop  offset="0" style="stop-color:#B5DBFF;stop-opacity:0"/>
			<stop  offset="0.1734" style="stop-color:#8FC5E9;stop-opacity:0.173"/>
			<stop  offset="0.4541" style="stop-color:#56A4C8;stop-opacity:0.454"/>
			<stop  offset="0.6955" style="stop-color:#2D8DB1;stop-opacity:0.696"/>
			<stop  offset="0.8853" style="stop-color:#147EA2;stop-opacity:0.885"/>
			<stop  offset="1" style="stop-color:#0B799D"/>
		</linearGradient>
		<path class="st14" d="M418.9,453.4c23.5,0,42.5-19,42.5-42.5V255.9l-54.6-54.6c-7.8-8.9-19.2-14.5-32-14.5H325l-58-58.6h-28.8
			H50.5v282.2c0,23.7,19.2,43,43,43H418.9z"/>
		
			<linearGradient id="SVGID_16_" gradientUnits="userSpaceOnUse" x1="255.4458" y1="111.1453" x2="255.4458" y2="28.4892" gradientTransform="matrix(1.0039 0 0 -1.0039 -0.4471 513.0233)">
			<stop  offset="0" style="stop-color:#B5DBFF;stop-opacity:0"/>
			<stop  offset="0.1734" style="stop-color:#8FC5E9;stop-opacity:0.173"/>
			<stop  offset="0.4541" style="stop-color:#56A4C8;stop-opacity:0.454"/>
			<stop  offset="0.6955" style="stop-color:#2D8DB1;stop-opacity:0.696"/>
			<stop  offset="0.8853" style="stop-color:#147EA2;stop-opacity:0.885"/>
			<stop  offset="1" style="stop-color:#0B799D"/>
		</linearGradient>
		<path class="st15" d="M50.5,363.8v47c0,23.5,19,42.5,42.5,42.5h325.9c23.5,0,42.5-19,42.5-42.5v-47H50.5z"/>
	</g>
	<g>
		
			<linearGradient id="SVGID_17_" gradientUnits="userSpaceOnUse" x1="186.0188" y1="377.8003" x2="186.0188" y2="314.9652" gradientTransform="matrix(1.0039 0 0 -1.0039 -0.4471 513.0233)">
			<stop  offset="0" style="stop-color:#FF9100"/>
			<stop  offset="1" style="stop-color:#E63950"/>
		</linearGradient>
		<path class="st16" d="M273.7,196.8H98.9V147c0-16.5,13.4-29.9,29.9-29.9h115c16.5,0,29.9,13.4,29.9,29.9L273.7,196.8L273.7,196.8z
			"/>
		
			<linearGradient id="SVGID_18_" gradientUnits="userSpaceOnUse" x1="141.2918" y1="377.8003" x2="141.2918" y2="314.9652" gradientTransform="matrix(1.0039 0 0 -1.0039 -0.4471 513.0233)">
			<stop  offset="0" style="stop-color:#FDBF00"/>
			<stop  offset="1" style="stop-color:#FF9100"/>
		</linearGradient>
		<path class="st17" d="M228.8,196.8H54V147c0-16.5,13.4-29.9,29.9-29.9h115c16.5,0,29.9,13.4,29.9,29.9L228.8,196.8L228.8,196.8z"
			/>
		
			<linearGradient id="SVGID_19_" gradientUnits="userSpaceOnUse" x1="35.6368" y1="338.9037" x2="298.5378" y2="76.0017" gradientTransform="matrix(1.0039 0 0 -1.0039 -0.4471 513.0233)">
			<stop  offset="0" style="stop-color:#FFDA2D"/>
			<stop  offset="1" style="stop-color:#FDBF00"/>
		</linearGradient>
		<path class="st18" d="M181.2,173.8V147c0-16.5-13.4-29.9-29.9-29.9h-115c-16.5,0-29.9,13.4-29.9,29.9v322.4
			C6.5,493,25.5,512,49,512h325.9c23.5,0,42.5-19,42.5-42.5V229.4c0-23.5-19-42.5-42.5-42.5H194.2C187,186.8,181.2,181,181.2,173.8
			L181.2,173.8z"/>
		<g>
			
				<linearGradient id="SVGID_20_" gradientUnits="userSpaceOnUse" x1="285.2646" y1="284.9793" x2="299.6116" y2="274.0483" gradientTransform="matrix(1.0039 0 0 -1.0039 -0.4471 513.0233)">
				<stop  offset="0" style="stop-color:#FF637B"/>
				<stop  offset="1" style="stop-color:#E63950"/>
			</linearGradient>
			<path class="st19" d="M294.6,245.4h-10.2c-5.9,0-10.6-4.8-10.6-10.6v-10.2c0-5.9,4.8-10.6,10.6-10.6h10.2
				c5.9,0,10.6,4.8,10.6,10.6v10.2C305.2,240.6,300.4,245.4,294.6,245.4z"/>
			
				<linearGradient id="SVGID_21_" gradientUnits="userSpaceOnUse" x1="325.303" y1="284.9798" x2="339.65" y2="274.0488" gradientTransform="matrix(1.0039 0 0 -1.0039 -0.4471 513.0233)">
				<stop  offset="0" style="stop-color:#FF637B"/>
				<stop  offset="1" style="stop-color:#E63950"/>
			</linearGradient>
			<path class="st20" d="M334.8,245.4h-10.2c-5.9,0-10.6-4.8-10.6-10.6v-10.2c0-5.9,4.8-10.6,10.6-10.6h10.2
				c5.9,0,10.6,4.8,10.6,10.6v10.2C345.4,240.6,340.6,245.4,334.8,245.4z"/>
			
				<linearGradient id="SVGID_22_" gradientUnits="userSpaceOnUse" x1="365.3409" y1="284.9797" x2="379.6889" y2="274.0487" gradientTransform="matrix(1.0039 0 0 -1.0039 -0.4471 513.0233)">
				<stop  offset="0" style="stop-color:#FF637B"/>
				<stop  offset="1" style="stop-color:#E63950"/>
			</linearGradient>
			<path class="st21" d="M375,245.4h-10.2c-5.9,0-10.6-4.8-10.6-10.6v-10.2c0-5.9,4.8-10.6,10.6-10.6H375c5.9,0,10.6,4.8,10.6,10.6
				v10.2C385.6,240.6,380.8,245.4,375,245.4z"/>
		</g>
		
			<linearGradient id="SVGID_23_" gradientUnits="userSpaceOnUse" x1="211.5708" y1="52.7992" x2="211.5708" y2="-29.8578" gradientTransform="matrix(1.0039 0 0 -1.0039 -0.4471 513.0233)">
			<stop  offset="0" style="stop-color:#FF9100;stop-opacity:0"/>
			<stop  offset="1" style="stop-color:#FF9100"/>
		</linearGradient>
		<path class="st22" d="M6.5,422.4v47C6.5,493,25.5,512,49,512h325.9c23.5,0,42.5-19,42.5-42.5v-47H6.5z"/>
	</g>
</g>
<g>
	<path class="st23" d="M357.3,329.6c0,52.5-252.9,110.4-272.1,110.4c-10.7,0-22.9-2.5-22.9-12.4c0-3.3,3.8-8.1,10.5-13.9l0,0
		l-17.8-31.5c-2.4-4.3-0.5-9.7,4.1-11.5l3.1-1.2c5.5-2.2,11.8-1.9,17,0.9l32.2,17.1c12.5-7.4,26.8-15.2,41.8-22.9l-62.8-40.8
		c-5-3.2-4.9-10.5,0.1-13.7l5.1-3.2c8.6-5.4,18.9-7,28.7-4.4l104.5,27.6c32.6-12.9,62-21.8,79.5-21.8c4.7,0,9.3,0.1,13.8,0.4
		L290.6,323l-0.8,10.6l48.7-22.4C350.2,314,357.3,319.2,357.3,329.6z M230.2,420.2l39,44.3c2.4,2.7,6.2,3.5,9.5,2l5.2-2.4
		c9.5-4.4,15.1-14.5,13.9-24.9l-4.9-41.7c-0.3-2.6-2.9-4.2-5.4-3.4l-55.7,19.6C229.2,414.6,228.3,418,230.2,420.2z"/>
</g>
</svg>
