<?xml version="1.0" encoding="utf-8"?>
<!-- Generator: Adobe Illustrator 22.1.0, SVG Export Plug-In . SVG Version: 6.00 Build 0)  -->
<svg version="1.1" id="Layer_1" xmlns="http://www.w3.org/2000/svg" xmlns:xlink="http://www.w3.org/1999/xlink" x="0px" y="0px"
	 viewBox="0 0 283.5 283.5" style="enable-background:new 0 0 283.5 283.5;" xml:space="preserve">
<style type="text/css">
	.st0{fill:#FFFFFF;}
	.st1{display:none;}
	.st2{display:inline;fill:#B11B17;}
	.st3{display:inline;fill:#0004AA;}
</style>
<path class="st0" d="M8.6,140.6c1.1-3.7,2.5-7.2,5-10.2c3.8-4.5,8.4-8.1,13.5-11.1c13.9-8.4,29.1-13.9,44.5-18.7
	c2.1-0.6,4.7-0.8,6.1-2.1c1.4-1.3,1.6-3.9,2.3-5.9c2-5.8,5.4-10.7,9.5-15.2c8.6-9.6,19.2-16.9,30.4-23.2
	c17.4-9.9,35.9-17.5,54.7-24.1c19.3-6.8,38.9-12.7,58.8-17.6c12-3,24-5.7,36.1-8.5c1.7-0.4,3.4-0.6,5.2-0.8
	c-5.6,2.4-11.4,4.6-16.9,7.2c-13,6.1-26.2,12.1-39,18.8c-10.9,5.7-21.6,12-32.1,18.6c-12.1,7.6-23.5,16.4-33.1,27
	c-6,6.6-11,13.7-13.3,22.5c-2.2,8.6,0,16.4,4.1,23.8c0.2,0.4,1.4,0.6,1.8,0.4c14.8-6.4,29.8-12.1,45.2-16.7
	c17.4-5.2,35-10,52.7-14.6c9.8-2.6,19.7-4.5,29.6-6.7c0.2-0.1,0.5,0,1.2,0c-39,16.4-76.9,34.1-110.2,60.8c2.4,2,4.5,3.8,6.7,5.4
	c13.6,10.4,28.2,19.3,43.3,27.4c15,8,30.4,15.4,46.1,21.9c0.5,0.2,1,0.5,1.5,1.1c-10.5-2.4-21.1-4.7-31.6-7.1
	c-21.2-4.9-42.2-11-62.7-18.2c-6.9-2.4-13.8-5.2-20.6-8c-1.7-0.7-2.3-0.4-3.2,1.2c-2.8,5-4.6,10.3-4.8,16c-0.2,4.7,1,9.3,3,13.7
	c2.9,6.3,6.9,11.7,11.5,16.8c8.5,9.2,18.3,16.9,28.7,24c12.4,8.4,25.3,16.1,38.7,22.6c13.1,6.4,26.3,12.3,39.5,18.5
	c0.4,0.2,0.8,0.4,1.2,0.6c0,0.2-0.1,0.3-0.1,0.5c-15-3.5-30-6.7-44.8-10.5c-23.9-6.1-47.5-13.5-70.3-23c-14.5-6.1-28.6-13-41.6-22.1
	c-8.5-6-16.3-12.9-21.8-22c-2.3-3.8-4-7.8-4.8-12.2c-0.3-1.5-1-2.3-2.5-2.7C63,183.8,50,179,37.8,172.4c-6.3-3.4-12.5-7.4-18.2-11.8
	c-5.3-4-9.4-9.2-10.9-15.9C8.6,143.2,8.6,141.9,8.6,140.6z M77.9,181.8c0.7-6.4,2.8-11.8,6.1-16.9c4.3-6.6,9.8-12.1,15.9-17
	c1.5-1.2,3.1-2.5,4.7-3.8c-13.2-10.1-25.1-20.9-26.9-38.7c-0.6,0.3-0.9,0.4-1.1,0.5c-8.4,5.5-16.2,11.6-22,19.9
	c-5.9,8.3-7.4,17.3-2.8,26.8s11.8,16.9,19.6,23.7C73.4,178.1,75.5,179.8,77.9,181.8z"/>
<g class="st1">
	<path class="st2" d="M340.8,175.6c0.1-0.5,0.1-1.2,0.1-1.9c0-2.1-0.3-4.2-0.3-4.2h18.5c0,0,1.8,2.7,1.8,6.8c0,0.8-0.1,1.8-0.3,2.7
		c-2.3,10.7-10,16.4-21.3,16.4h-32.8c-12.8,0-18.3-3.7-18.3-13.1c0-2.6,0.4-5.5,1.1-8.7l18-84.7h23.2l-17.5,82
		c-0.4,1.8-0.5,3.3-0.5,4.4c0,3.3,1.8,3.8,7.1,3.8h15C338.7,179.1,340.4,177.7,340.8,175.6z"/>
	<path class="st2" d="M457.1,110.7l13.4,84.7h-24.6l-2.3-21.9h-46.2l-11.6,21.9h-24.6l49.5-84.7c10-16.7,18.3-23.2,28.2-23.2
		C448.6,87.5,454.2,94.1,457.1,110.7z M437.5,118.9c0,0-0.7-9.6-3.4-9.6s-7.5,9.6-7.5,9.6l-20.4,38.3h35.5L437.5,118.9z"/>
	<path class="st2" d="M589.5,119.6c0,2.9-0.3,5.9-1,8.9l-6,28.7c-5.3,24.9-28.3,41-56.6,41c-24.7,0-40-12.3-40-32c0-2.9,0.3-5.9,1-9
		l6-28.7c5.2-24.1,28.6-42.4,56.9-42.4C574.5,86.1,589.5,100.1,589.5,119.6z M516.1,128.5l-6,28.7c-0.5,2.3-0.8,4.5-0.8,6.4
		c0,10.5,7,16.8,20.4,16.8c16,0,26.5-8.9,29.7-23.2l6-28.7c0.5-2.5,0.8-4.9,0.8-7c0-11.6-7.7-17.6-20.2-17.6
		C531,103.9,519.5,112.2,516.1,128.5z"/>
	<path class="st3" d="M686.5,198.2c-22.6,0-41.1-9-41.1-25.6c0-1.6,0.1-3.4,0.5-5.2c1.1-5.3,4.5-10.9,7.1-14.4l23.8,6.8
		c-3.1,2.9-4.5,5.2-4.9,7.5c-0.1,0.8-0.3,1.5-0.3,2.2c0,7.2,8.3,10.8,18.6,10.8c13.4,0,23.5-4.4,25.3-12.3c0.1-1,0.3-1.8,0.3-2.6
		c0-7.2-7.1-11.3-19.8-15.2c-11.8-3.6-37.3-7.5-37.3-27.2c0-1.8,0.1-3.7,0.5-5.6c3-14.2,22-31.4,50.4-31.4
		c25.6,0,37.4,13.9,37.4,27.1c0,1.5-0.1,2.9-0.4,4.4h-23.2c0.3-1.1,0.4-2,0.4-3.1c0-7.7-7-11.9-17.6-11.9c-12,0-21.9,6.2-23.5,13.7
		c-0.1,0.5-0.1,1.1-0.1,1.6c0,6.4,9.3,8.1,20.5,12c15.6,5.6,36.8,10,36.8,29.8c0,2.2-0.3,4.5-0.8,7.1
		C734.8,186.2,714.7,198.2,686.5,198.2z"/>
	<path class="st3" d="M795.2,88.9l-9.4,44.1c20.9-19.4,38.3-33.8,46.3-44.1h27.3c-13.8,13.5-54.9,49.2-54.9,49.2
		s23.5,28.3,36.4,57.4h-27.3c-7.5-18.6-18.7-36.4-30.1-51.3l-10.9,51.3h-21.9l22.7-106.6H795.2z"/>
	<path class="st3" d="M890.2,88.9l9,41c0,0,1.2,7.5,3.1,7.5c1.9,0,6.4-7.5,6.4-7.5l26.5-41h23.9c0,0-33.2,48.5-37.6,54.7
		c-3.3,4.6-7.5,9-12.2,12.2l-8.5,39.8h-21.9l8.5-39.8c-3.3-3.1-5.6-7.5-7-12.2c-1.9-6.2-14.4-54.7-14.4-54.7S890.2,88.9,890.2,88.9z
		"/>
	<path class="st3" d="M987.9,88.9l2.3,79.3c0.1,3.7-0.3,6.8,1.2,6.8c1.9,0,1.9-2,4.2-6.8l33.2-79.3h9.6h9.6l-0.4,79.3v1.2v3.6
		c0,1.4,0.1,2,1.2,2c1.5,0,2.5-3.1,4.2-6.8l35.9-79.3h23.2l-44.7,94.3c-4.6,9.8-13.1,13.7-22,13.7c-6.7,0-14.4-4-14.9-13.7
		l-0.1-57.4l-24.5,57.4c-4.6,9.7-13.9,13.7-20.6,13.7c-8.9,0-15.7-3.8-16.3-13.7l-4.5-94.3C964.5,88.9,987.9,88.9,987.9,88.9z"/>
	<path class="st3" d="M1180,110.7l13.4,84.7h-24.6l-2.3-21.9h-46.2l-11.6,21.9h-24.6l49.5-84.7c10-16.7,18.3-23.2,28.2-23.2
		C1171.6,87.5,1177.2,94.1,1180,110.7z M1160.5,118.9c0,0-0.7-9.6-3.4-9.6s-7.5,9.6-7.5,9.6l-20.4,38.3h35.5L1160.5,118.9z"/>
	<path class="st3" d="M1231.8,88.9l9,41c0,0,1.2,7.5,3.1,7.5s6.4-7.5,6.4-7.5l26.5-41h23.9c0,0-33.2,48.5-37.6,54.7
		c-3.3,4.6-7.5,9-12.2,12.2l-8.5,39.8h-21.9l8.5-39.8c-3.3-3.1-5.6-7.5-7-12.2c-1.9-6.2-14.4-54.7-14.4-54.7
		S1231.8,88.9,1231.8,88.9z"/>
</g>
</svg>
