<?xml version="1.0" encoding="utf-8"?>
<!-- Generator: Adobe Illustrator 22.1.0, SVG Export Plug-In . SVG Version: 6.00 Build 0)  -->
<svg version="1.1" id="File_management" xmlns="http://www.w3.org/2000/svg" xmlns:xlink="http://www.w3.org/1999/xlink" x="0px"
	 y="0px" viewBox="0 0 512 512" style="enable-background:new 0 0 512 512;" xml:space="preserve">
<style type="text/css">
	.st0{fill:#365E7D;}
	.st1{fill:#FFE027;}
	.st2{fill:#FFE464;}
	.st3{fill:#4A80AA;}
	.st4{fill:#1A6FB0;}
	.st5{fill:#FFFFFF;stroke:#4A80AA;stroke-width:18;stroke-linecap:round;stroke-linejoin:round;stroke-miterlimit:10;}
</style>
<path class="st0" d="M56,80h400v112H56V80z"/>
<path class="st1" d="M416,248H112V24h224l80,72V248z"/>
<path class="st2" d="M416,96h-80V24L416,96z"/>
<path class="st3" d="M200,192l-32-64H24v54.6V440h464V192H200z"/>
<g>
	<path class="st4" d="M144,56h40v16h-40V56z"/>
	<path class="st4" d="M208,56h88v16h-88V56z"/>
	<path class="st4" d="M144,88h152v16H144V88z"/>
	<path class="st4" d="M216,120h168v16H216V120z"/>
	<path class="st4" d="M216,152h168v16H216V152z"/>
</g>
<g>
	<path class="st5" d="M254.3,354.6c18.1,0,33.8-6.5,46.7-19.3c12.8-12.8,19.3-28.5,19.3-46.7c0-18.1-6.5-33.8-19.3-46.7
		c-12.8-12.8-28.5-19.3-46.7-19.3c-18.1,0-33.8,6.5-46.7,19.3c-12.8,12.8-19.3,28.5-19.3,46.7c0,18.1,6.5,33.8,19.3,46.7
		C220.4,348.1,236.1,354.6,254.3,354.6z"/>
	<path class="st5" d="M369.8,424.1c-0.4-5.3-1.1-11.2-2.2-17.3c-1.1-6.2-2.5-12.1-4.3-17.4c-1.8-5.5-4.2-11-7.2-16.2
		c-3.1-5.4-6.7-10.2-10.8-14.1c-4.3-4.1-9.5-7.4-15.5-9.7c-6-2.4-12.7-3.6-19.8-3.6c-2.8,0-5.5,1.1-10.7,4.5
		c-3.2,2.1-7,4.5-11.2,7.2c-3.6,2.3-8.5,4.4-14.5,6.4c-5.9,1.9-11.8,2.9-17.7,2.9c-5.9,0-11.8-1-17.7-2.9c-6-1.9-10.9-4.1-14.4-6.4
		c-4.2-2.7-7.9-5.1-11.2-7.2c-5.2-3.4-7.9-4.5-10.7-4.5c-7.1,0-13.8,1.2-19.8,3.6c-6,2.4-11.2,5.7-15.5,9.7
		c-4.1,3.9-7.7,8.6-10.8,14.1c-3,5.2-5.4,10.7-7.2,16.2c-1.7,5.4-3.1,11.2-4.3,17.4c-1.1,6.1-1.9,12-2.2,17.3
		c-0.4,5.2-0.5,10.7-0.5,16.2c0,14.3,4.5,25.9,13.5,34.4c8.9,8.4,20.6,12.7,34.8,12.7H322c14.3,0,26-4.3,34.8-12.7
		c9-8.5,13.5-20.1,13.5-34.4C370.3,434.8,370.1,429.3,369.8,424.1z"/>
</g>
</svg>
