<?xml version="1.0" encoding="utf-8"?>
<!-- Generator: Adobe Illustrator 24.1.0, SVG Export Plug-In . SVG Version: 6.00 Build 0)  -->
<svg version="1.1" id="Layer_1" xmlns="http://www.w3.org/2000/svg" xmlns:xlink="http://www.w3.org/1999/xlink" x="0px" y="0px"
	 viewBox="0 0 200 200" style="enable-background:new 0 0 200 200;" xml:space="preserve">
<style type="text/css">
	.st0{fill:#E6F0FB;}
	.st1{fill:#515050;}
	.st2{fill:#81807E;}
	.st3{fill:#FFCE00;}
	.st4{fill:#B3B3B2;}
	.st5{fill:#FEFEFC;}
	.st6{fill:#FFCF00;}
	.st7{fill:#C7C6C6;}
	.st8{fill:#034987;}
	.st9{fill:#F5AAB2;}
	.st10{fill:#EC606B;}
	.st11{fill:#EF7A00;}
	.st12{fill:#F5F5E3;}
	.st13{fill:#F49900;}
	.st14{fill:#3575BB;}
	.st15{fill:#62BAE9;}
	.st16{fill:#FFFFFF;}
	.st17{fill:#F5B4C3;}
	.st18{fill:#76C6F0;}
	.st19{fill:#3C63AC;}
	.st20{fill:#99D5E6;}
	.st21{fill:#F8C7D9;}
	.st22{fill:#7BC5EF;}
</style>
<g>
	<path class="st0" d="M102.8,60.1H68.4c0,0-9.9-1.3-14,14.2S39.6,85.4,29.7,86.3s-16.2,15.7-2.9,20.9s11.9,5.9,9.9,14
		c-2,8.1-6.8,8.6-14.2,9.2c-7.4,0.5-20.7,9.7-14.9,27.5s43.7,9.4,43.7,9.4l62.6,2h40.3c0,0,27.7,3.9,36.7-20.7s-14.2-47.3-31.8-43.4
		S134.1,78.1,147,77s27.3,0.5,28.6-12.6s-11.2-20.3-25.2-17.1C136.4,50.5,102.8,60.1,102.8,60.1z"/>
	<g>
		<g>
			<path class="st1" d="M73.4,68.1c1.7,0,3.4,0,5.1,0c-0.4,1.2-1.3,1.5-2.4,1.5c-0.5,0-0.9,0-1.3-0.2C74.1,69.2,73.6,68.8,73.4,68.1
				z"/>
			<path class="st2" d="M78.8,68.1H73c-1.5,0-2.8-1.3-2.8-2.8v-9.6c0-1.5,1.3-2.8,2.8-2.8h5.8c1.5,0,2.8,1.3,2.8,2.8v9.6
				C81.6,66.9,80.4,68.1,78.8,68.1z"/>
			<path class="st3" d="M70.2,58.3c-1.2-0.1-1.4-0.3-1.4-1.5C68.7,54.1,67.6,52,66,50c-0.9-1.1-1.7-2.3-2.4-3.5
				c-0.9-1.9-1.3-3.8-1.1-5.9c0.2-2.6,1-5,2.5-7.1c2.2-3,5.1-4.9,8.9-5.4c4.7-0.7,8.8,0.7,12,4.2c2,2.1,3.1,4.6,3.4,7.5
				c0.4,3.2-0.4,6-2.3,8.6c-0.8,1.1-1.7,2.2-2.4,3.4c-1,1.6-1.5,3.2-1.5,5.1c0,1-0.3,1.3-1.4,1.4c0,0-0.1,0-0.1,0
				c-0.1,0-0.3,0-0.4,0c-1.1,0-2.1,0-3.2,0c0-0.2,0-0.3,0-0.5c0-3.1,0-6.3,0-9.4c0-0.3,0-0.4,0.3-0.4c0.5,0,1,0,1.4,0
				c1.8,0,3.2-1.6,3-3.4c-0.2-1.6-1.6-2.7-3.2-2.6c-1.5,0.1-2.7,1.4-2.7,2.9c0,0.5,0,1.1,0,1.6c0,0.2-0.1,0.2-0.2,0.2
				c-0.5,0-0.9,0-1.4,0c-0.2,0-0.2-0.1-0.2-0.2c0-0.5,0-1,0-1.6c0-1.8-1.6-3.2-3.4-3c-1.4,0.2-2.5,1.4-2.6,2.8
				c-0.1,1.3,0.9,2.7,2.2,3c0.7,0.2,1.4,0.1,2.1,0.1c0.5,0,0.5,0,0.5,0.5c0,3.3,0,6.5,0,9.8c-0.4,0-0.8,0-1.2,0
				C71.8,58.2,71,58.2,70.2,58.3z M65.6,38.6c0,0.6,0.4,1,0.9,1.1c0.5,0.1,1-0.2,1.1-0.8c0.9-3,2.9-4.9,5.9-5.9
				c0.7-0.2,1-0.7,0.8-1.3c-0.2-0.6-0.7-0.9-1.4-0.7c-3.4,1.1-5.7,3.2-7,6.5C65.7,37.9,65.6,38.3,65.6,38.6z"/>
			<path class="st4" d="M81.6,58.3C81.6,58.3,81.6,58.3,81.6,58.3C81.6,58.3,81.6,58.3,81.6,58.3C81.6,58.3,81.6,58.3,81.6,58.3z"/>
			<path class="st4" d="M70.2,58.3C70.2,58.3,70.2,58.3,70.2,58.3C70.3,58.3,70.2,58.3,70.2,58.3C70.2,58.3,70.2,58.3,70.2,58.3z"/>
			<path class="st5" d="M78,58.2c-0.4,0-0.8,0-1.2,0c0-2.3,0-4.6,0-6.9c0-1,0-2.1,0-3.1c0-0.2-0.1-0.3-0.3-0.3c-0.4,0-0.8,0-1.2,0
				c-0.3,0-0.3,0.1-0.3,0.3c0,3.3,0,6.6,0,9.9c-0.4,0-0.8,0-1.2,0c0-3.3,0-6.5,0-9.8c0-0.4,0-0.4-0.5-0.5c-0.7,0-1.4,0.1-2.1-0.1
				c-1.3-0.4-2.3-1.7-2.2-3c0.1-1.5,1.2-2.7,2.6-2.8c1.8-0.2,3.4,1.2,3.4,3c0,0.5,0,1,0,1.6c0,0.2,0.1,0.2,0.2,0.2
				c0.5,0,0.9,0,1.4,0c0.2,0,0.2-0.1,0.2-0.2c0-0.5,0-1.1,0-1.6c0-1.5,1.2-2.8,2.7-2.9c1.7-0.1,3,1,3.2,2.6c0.2,1.8-1.1,3.3-3,3.4
				c-0.5,0-1,0-1.4,0c-0.3,0-0.3,0.1-0.3,0.4c0,3.1,0,6.3,0,9.4C78.1,57.9,78,58,78,58.2z M73.8,45.7c0-0.2,0-0.5,0-0.7
				c0-0.9-0.8-1.7-1.6-1.7c-1,0-1.8,0.6-1.9,1.7c-0.1,0.9,0.6,1.8,1.5,1.9c0.6,0.1,1.3,0,1.9,0c0.1,0,0.2-0.1,0.2-0.2
				C73.8,46.3,73.8,46,73.8,45.7z M78.1,45.6c0,0.4,0,0.7,0,1c0,0.1,0,0.2,0.2,0.2c0.6,0,1.2,0,1.8,0c0.9-0.1,1.6-0.9,1.6-1.8
				c0-0.9-0.7-1.7-1.5-1.8c-0.9-0.1-1.7,0.4-2,1.3C78,44.9,78.1,45.2,78.1,45.6z"/>
			<path class="st5" d="M65.6,38.6c0-0.3,0.2-0.7,0.3-1c1.3-3.3,3.6-5.5,7-6.5c0.6-0.2,1.2,0.1,1.4,0.7c0.2,0.6-0.1,1.1-0.8,1.3
				c-3,1-4.9,2.9-5.9,5.9c-0.2,0.5-0.6,0.9-1.1,0.8C65.9,39.6,65.5,39.2,65.6,38.6z"/>
			<path class="st6" d="M75,58.2c0-3.3,0-6.6,0-9.9c0-0.3,0.1-0.4,0.3-0.3c0.4,0,0.8,0,1.2,0c0.2,0,0.3,0.1,0.3,0.3c0,1,0,2.1,0,3.1
				c0,2.3,0,4.6,0,6.9C76.2,58.2,75.6,58.2,75,58.2z"/>
			<path class="st6" d="M73.8,45.7c0,0.3,0,0.6,0,0.9c0,0.1,0,0.2-0.2,0.2c-0.6,0-1.3,0-1.9,0c-0.9-0.1-1.6-1-1.5-1.9
				c0.1-1,0.9-1.7,1.9-1.7c0.9,0,1.6,0.8,1.6,1.7C73.8,45.2,73.8,45.4,73.8,45.7z"/>
			<path class="st6" d="M78.1,45.6c0-0.3,0-0.7,0.1-1c0.2-0.9,1.1-1.5,2-1.3c0.9,0.1,1.5,0.9,1.5,1.8c0,0.9-0.7,1.6-1.6,1.8
				c-0.6,0.1-1.2,0-1.8,0c-0.2,0-0.2-0.1-0.2-0.2C78.1,46.2,78.1,45.9,78.1,45.6z"/>
			<g>
				<path class="st4" d="M81.6,65h-5.2v1.7h5.2c0.4,0,0.8-0.3,0.8-0.8v-0.2C82.4,65.4,82,65,81.6,65z"/>
				<path class="st4" d="M70.3,65c-0.4,0-0.8,0.3-0.8,0.8V66c0,0.4,0.3,0.8,0.8,0.8h0.9V65H70.3z"/>
				<rect x="71.2" y="65" class="st7" width="5.3" height="1.7"/>
			</g>
			<g>
				<path class="st4" d="M81.6,62.2h-5.2v1.7h5.2c0.4,0,0.8-0.3,0.8-0.8V63C82.4,62.5,82,62.2,81.6,62.2z"/>
				<path class="st4" d="M70.3,62.2c-0.4,0-0.8,0.3-0.8,0.8v0.2c0,0.4,0.3,0.8,0.8,0.8h0.9v-1.7H70.3z"/>
				<rect x="71.2" y="62.2" class="st7" width="5.3" height="1.7"/>
			</g>
			<g>
				<path class="st4" d="M81.6,59.4h-5.2v1.7h5.2c0.4,0,0.8-0.3,0.8-0.8v-0.2C82.4,59.7,82,59.4,81.6,59.4z"/>
				<path class="st4" d="M70.3,59.4c-0.4,0-0.8,0.3-0.8,0.8v0.2c0,0.4,0.3,0.8,0.8,0.8h0.9v-1.7H70.3z"/>
				<rect x="71.2" y="59.4" class="st7" width="5.3" height="1.7"/>
			</g>
		</g>
		<g>
			<path class="st3" d="M75.9,25.4L75.9,25.4c-0.5,0-0.9-0.4-0.9-0.9v-5.6c0-0.5,0.4-0.9,0.9-0.9l0,0c0.5,0,0.9,0.4,0.9,0.9v5.6
				C76.9,25,76.5,25.4,75.9,25.4z"/>
			<path class="st3" d="M69.8,26.6L69.8,26.6c-0.5,0.2-1,0-1.2-0.5L66.5,21c-0.2-0.5,0-1,0.5-1.2l0,0c0.5-0.2,1,0,1.2,0.5l2.1,5.2
				C70.5,25.9,70.3,26.4,69.8,26.6z"/>
			<path class="st3" d="M64.6,30L64.6,30c-0.4,0.4-1,0.3-1.3,0l-3.9-4c-0.4-0.4-0.3-1,0-1.3v0c0.4-0.4,1-0.3,1.3,0l3.9,4
				C65,29.1,65,29.7,64.6,30z"/>
			<path class="st3" d="M61,35.1L61,35.1c-0.2,0.5-0.8,0.7-1.2,0.5l-5.1-2.3c-0.5-0.2-0.7-0.8-0.5-1.2l0,0c0.2-0.5,0.8-0.7,1.2-0.5
				l5.1,2.3C61,34.1,61.2,34.7,61,35.1z"/>
			<path class="st3" d="M59.6,41.2L59.6,41.2c0,0.5-0.5,0.9-1,0.9l-5.6-0.2c-0.5,0-0.9-0.5-0.9-1l0,0c0-0.5,0.5-0.9,1-0.9l5.6,0.2
				C59.2,40.3,59.6,40.7,59.6,41.2z"/>
		</g>
		<g>
			<path class="st3" d="M82,26.6L82,26.6c0.5,0.2,1,0,1.2-0.5l2.1-5.2c0.2-0.5,0-1-0.5-1.2l0,0c-0.5-0.2-1,0-1.2,0.5l-2.1,5.2
				C81.3,25.9,81.5,26.4,82,26.6z"/>
			<path class="st3" d="M87.2,30L87.2,30c0.4,0.4,1,0.3,1.3,0l3.9-4c0.4-0.4,0.3-1,0-1.3v0c-0.4-0.4-1-0.3-1.3,0l-3.9,4
				C86.8,29.1,86.9,29.7,87.2,30z"/>
			<path class="st3" d="M90.8,35.1L90.8,35.1c0.2,0.5,0.8,0.7,1.2,0.5l5.1-2.3c0.5-0.2,0.7-0.8,0.5-1.2v0c-0.2-0.5-0.8-0.7-1.2-0.5
				l-5.1,2.3C90.8,34.1,90.6,34.7,90.8,35.1z"/>
			<path class="st3" d="M92.2,41.2L92.2,41.2c0,0.5,0.5,0.9,1,0.9l5.6-0.2c0.5,0,0.9-0.5,0.9-1l0,0c0-0.5-0.5-0.9-1-0.9l-5.6,0.2
				C92.6,40.3,92.2,40.7,92.2,41.2z"/>
		</g>
	</g>
	<path class="st8" d="M58.6,75.8c0,0,3.5-5.3,9.3-0.5c5.8,4.8-0.4,13.9-6.8,12s-11.7,1.4-7.6,10.6c0,0-2.9-2.7-4.1-0.4
		c-1.3,2.3,1.5,3.2,1.5,3.2s-5.4,0.6-8.4-8.5C39.5,83,45.6,80,45.6,80s0.7-4.8,5.8-3.4C51.4,76.6,54.9,72.5,58.6,75.8z"/>
	<g>
		<path class="st9" d="M68.7,96c1.8-4.7-3.1-11.2-3.1-11.2l-13.9,0.5l-4.6,9.5l2.1,5.4l1.7,0.5l-0.2,7.3l8.9,9.8l2.9-2.7v-6.7
			c-4.8,0.3-8-6.4-8-6.4c2.3,1.5,5.9,1.9,8,2v0C64.2,104,66.9,100.6,68.7,96z"/>
		<path class="st10" d="M62.5,108.5v-4.4c-2.2-0.1-5.7-0.5-8-2C54.4,102.1,57.7,108.8,62.5,108.5z"/>
	</g>
	<path class="st11" d="M66.2,108c-2.1-0.4-3.8-0.3-3.8-0.3l1.1,7.3h-9.5l-5.7-7.3c-0.9,0-1.8,0.1-2.7,0.2c0.1,0.2,16.5,39,17.7,51.7
		C63.3,159.6,69.8,125.3,66.2,108z"/>
	<path class="st12" d="M50.8,104.5l-2.4,3.3c0,0,1.8,7.8,5.7,12l5-4.6h0.7l4.9,4.6c0,0,0.2-9-0.6-11.9l-1.6,0c0,0-1.4,5.3-3,6.9
		C59.4,114.7,50.2,109.8,50.8,104.5z"/>
	<path class="st13" d="M82.4,124.9c-2.8-11.4-7.1-12.4-10.8-14.9c-1.7-1.1-3.7-1.7-5.4-2c3.6,17.2-2.9,51.6-2.9,51.6
		c-1.2-12.7-17.6-51.5-17.7-51.7c-10.8,1.3-16.2,8.8-18.5,14.3c-2.4,5.9-7.4,26.7-7.7,30.1c-0.3,3.4-0.7,8.8,3.2,11.3
		c3.9,2.6,14.9,4,14.9,4v1.9h42.3l3-2.7l4.6-21.7C87.5,145.2,85.2,136.4,82.4,124.9z M32.1,153.7l3.8-9.8l0.9,11.9L32.1,153.7z"/>
	<polygon class="st11" points="53.4,163 36.8,155.8 36.7,153.9 	"/>
	<path class="st14" d="M118.3,138.7H82.9c0,0-2-0.4-2.5,2.2c-0.4,2.1-3.5,18.7-4.6,24.5H59.6v4.1h17.3c0.3,0,1.2,0,2.6,0
		c8.5,0,34.5,0,34.5,0s2-0.5,2.4-3.3c0.4-2.9,4.4-24.4,4.4-24.4S121.6,138.7,118.3,138.7z"/>
	<path class="st15" d="M119.5,138.7H84.1c0,0-2-0.4-2.5,2.2c-0.5,2.6-4.9,26.4-4.9,26.4s-0.4,2.1,1.4,2.1c1.8,0,37.2,0,37.2,0
		s2-0.5,2.4-3.3s4.4-24.4,4.4-24.4S122.8,138.7,119.5,138.7z"/>
	<g>
		<path class="st16" d="M103.4,154.8C103.4,154.8,103.4,154.8,103.4,154.8c-0.1,0.3-0.2,0.5-0.3,0.7c-0.2,0.3-0.3,0.5-0.6,0.7
			c-0.2,0.2-0.4,0.2-0.7,0.2c-0.1,0-0.3-0.1-0.4-0.1c-0.2-0.1-0.4-0.1-0.5,0c-0.1,0-0.2,0.1-0.4,0.1c-0.3,0.1-0.6,0.1-0.9-0.2
			c-0.1-0.1-0.2-0.2-0.3-0.3c-0.3-0.4-0.5-0.9-0.6-1.4c-0.1-0.4-0.2-0.8-0.1-1.3c0.1-0.6,0.4-1,0.9-1.2c0.3-0.1,0.7-0.2,1,0
			c0.1,0,0.2,0.1,0.4,0.1c0.1,0,0.2,0,0.3,0c0.1,0,0.2-0.1,0.3-0.1c0.5-0.2,1-0.1,1.5,0.3c0.1,0.1,0.2,0.3,0.3,0.4
			c-0.1,0.1-0.2,0.1-0.3,0.2c-0.5,0.4-0.5,1-0.2,1.4c0.1,0.2,0.2,0.3,0.4,0.4C103.3,154.7,103.4,154.7,103.4,154.8z"/>
		<path class="st16" d="M102.1,150.5c0,0.1,0,0.3,0,0.4c-0.1,0.4-0.3,0.7-0.8,0.9c-0.1,0-0.2,0-0.2,0c-0.1,0-0.1,0-0.1-0.1
			c0-0.2,0-0.4,0.1-0.6c0.2-0.3,0.4-0.6,0.8-0.7c0,0,0,0,0.1,0C102,150.5,102,150.5,102.1,150.5z"/>
	</g>
	<path class="st17" d="M52.1,169.5c0,0-0.1-5.9,1.3-6.6c1.4-0.6,11,0.8,12.2,6.6H52.1z"/>
	<path class="st18" d="M160.4,131h-58.1c-2.1,0-3.8-1.7-3.8-3.8V46.3c0-2.1,1.7-3.8,3.8-3.8h58.1c2.1,0,3.8,1.7,3.8,3.8v80.9
		C164.1,129.3,162.5,131,160.4,131z"/>
	<rect x="100.9" y="46.5" class="st16" width="61" height="79.6"/>
	<path class="st19" d="M143.4,41.1h-7.2c0,0,0-0.1,0-0.1v-1.6c0-2.7-2.2-4.9-4.9-4.9h0c-2.7,0-4.9,2.2-4.9,4.9V41c0,0,0,0.1,0,0.1
		h-7.1c-2,0-3.6,1.6-3.6,3.6v0c0,2,1.6,3.6,3.6,3.6h24.1c2,0,3.6-1.6,3.6-3.6v0C146.9,42.7,145.4,41.1,143.4,41.1z M131.3,36.1
		c1.3,0,2.3,1,2.3,2.3c0,1.3-1,2.3-2.3,2.3c-1.3,0-2.3-1-2.3-2.3C129,37.2,130,36.1,131.3,36.1z"/>
	<g>
		<path class="st20" d="M149.7,100.7c-4.4,0-8-3.6-8-8s3.6-8,8-8c4.4,0,8,3.6,8,8S154.1,100.7,149.7,100.7z M149.7,86.7
			c-3.3,0-6,2.7-6,6s2.7,6,6,6c3.3,0,6-2.7,6-6S153,86.7,149.7,86.7z"/>
	</g>
	<g>
		<path class="st20" d="M149.7,119.7c-4.4,0-8-3.6-8-8s3.6-8,8-8c4.4,0,8,3.6,8,8S154.1,119.7,149.7,119.7z M149.7,105.7
			c-3.3,0-6,2.7-6,6s2.7,6,6,6c3.3,0,6-2.7,6-6S153,105.7,149.7,105.7z"/>
	</g>
	<g>
		<path class="st20" d="M149.7,82c-4.4,0-8-3.6-8-8s3.6-8,8-8c4.4,0,8,3.6,8,8S154.1,82,149.7,82z M149.7,67.9c-3.3,0-6,2.7-6,6
			s2.7,6,6,6c3.3,0,6-2.7,6-6S153,67.9,149.7,67.9z"/>
	</g>
	<g>
		<path class="st13" d="M148.9,78.1C148.9,78.1,148.8,78.1,148.9,78.1c-0.4,0-0.7-0.2-0.9-0.4l-3.1-3.6c-0.4-0.5-0.4-1.3,0.1-1.7
			c0.5-0.4,1.3-0.4,1.7,0.1l2.3,2.7l8.4-7.2c0.5-0.4,1.3-0.4,1.7,0.1c0.4,0.5,0.4,1.3-0.1,1.7l-9.3,8
			C149.5,78,149.2,78.1,148.9,78.1z"/>
	</g>
	<g>
		<g>
			<path class="st21" d="M118.1,70.7h-11.2c-0.6,0-1-0.5-1-1s0.5-1,1-1h11.2c0.6,0,1,0.5,1,1S118.7,70.7,118.1,70.7z"/>
		</g>
		<g>
			<path class="st22" d="M139.2,75h-32.3c-0.6,0-1-0.5-1-1c0-0.6,0.5-1,1-1h32.3c0.6,0,1,0.5,1,1C140.2,74.5,139.7,75,139.2,75z"/>
		</g>
		<g>
			<path class="st22" d="M129.4,79.9h-22.5c-0.6,0-1-0.5-1-1s0.5-1,1-1h22.5c0.6,0,1,0.5,1,1S130,79.9,129.4,79.9z"/>
		</g>
	</g>
	<g>
		<g>
			<path class="st21" d="M118.1,89.1h-11.2c-0.6,0-1-0.5-1-1s0.5-1,1-1h11.2c0.6,0,1,0.5,1,1S118.7,89.1,118.1,89.1z"/>
		</g>
		<g>
			<path class="st22" d="M139.2,93.4h-32.3c-0.6,0-1-0.5-1-1c0-0.6,0.5-1,1-1h32.3c0.6,0,1,0.5,1,1
				C140.2,92.9,139.7,93.4,139.2,93.4z"/>
		</g>
		<g>
			<path class="st22" d="M129.4,98.3h-22.5c-0.6,0-1-0.5-1-1s0.5-1,1-1h22.5c0.6,0,1,0.5,1,1S130,98.3,129.4,98.3z"/>
		</g>
	</g>
	<g>
		<g>
			<path class="st21" d="M118.1,107.5h-11.2c-0.6,0-1-0.5-1-1c0-0.6,0.5-1,1-1h11.2c0.6,0,1,0.5,1,1
				C119.1,107,118.7,107.5,118.1,107.5z"/>
		</g>
		<g>
			<path class="st22" d="M139.2,111.8h-32.3c-0.6,0-1-0.5-1-1c0-0.6,0.5-1,1-1h32.3c0.6,0,1,0.5,1,1
				C140.2,111.3,139.7,111.8,139.2,111.8z"/>
		</g>
		<g>
			<path class="st22" d="M129.4,116.7h-22.5c-0.6,0-1-0.5-1-1c0-0.6,0.5-1,1-1h22.5c0.6,0,1,0.5,1,1
				C130.4,116.3,130,116.7,129.4,116.7z"/>
		</g>
	</g>
	<g>
		<path class="st18" d="M106.5,58.9c0-0.9,0.2-1.6,0.7-2.1c0.4-0.5,1.1-0.7,1.8-0.7c0.8,0,1.4,0.2,1.9,0.7c0.4,0.5,0.7,1.2,0.7,2
			c0,0.6-0.1,1.1-0.3,1.6c-0.2,0.4-0.5,0.7-0.8,0.9c-0.4,0.2-0.8,0.3-1.3,0.3c-0.5,0-1-0.1-1.4-0.3c-0.4-0.2-0.6-0.5-0.9-0.9
			C106.6,60.1,106.5,59.6,106.5,58.9z M108,58.9c0,0.5,0.1,0.9,0.3,1.2c0.2,0.2,0.4,0.4,0.7,0.4c0.3,0,0.6-0.1,0.7-0.3
			c0.2-0.2,0.3-0.7,0.3-1.3c0-0.5-0.1-0.9-0.3-1.1c-0.2-0.2-0.4-0.4-0.7-0.4c-0.3,0-0.5,0.1-0.7,0.4C108.1,58,108,58.4,108,58.9z"/>
		<path class="st18" d="M112.3,56.2h1.4l1.8,3v-3h1.4v5.4h-1.4l-1.8-3v3h-1.4V56.2z"/>
		<path class="st18" d="M118,56.2h1.5v4.1h2.3v1.3H118V56.2z"/>
		<path class="st18" d="M122.5,56.2h1.5v5.4h-1.5V56.2z"/>
		<path class="st18" d="M125.1,56.2h1.4l1.8,3v-3h1.4v5.4h-1.4l-1.8-3v3h-1.4V56.2z"/>
		<path class="st18" d="M130.7,56.2h4v1.2h-2.5v0.9h2.3v1.1h-2.3v1.1h2.6v1.2h-4.1V56.2z"/>
		<path class="st18" d="M137.5,56.2h4.5v1.3h-1.5v4.1h-1.5v-4.1h-1.5V56.2z"/>
		<path class="st18" d="M142.7,56.2h4v1.2h-2.5v0.9h2.3v1.1h-2.3v1.1h2.6v1.2h-4.1V56.2z"/>
		<path class="st18" d="M147.4,59.8l1.4-0.1c0,0.3,0.1,0.5,0.2,0.6c0.2,0.2,0.4,0.3,0.7,0.3c0.2,0,0.4-0.1,0.5-0.2
			c0.1-0.1,0.2-0.2,0.2-0.4c0-0.1-0.1-0.3-0.2-0.4c-0.1-0.1-0.4-0.2-0.8-0.3c-0.7-0.2-1.1-0.4-1.4-0.7c-0.3-0.3-0.4-0.6-0.4-1
			c0-0.3,0.1-0.5,0.2-0.8c0.1-0.2,0.4-0.4,0.7-0.6c0.3-0.1,0.7-0.2,1.2-0.2c0.6,0,1.1,0.1,1.4,0.4c0.3,0.3,0.5,0.7,0.6,1.2l-1.4,0.1
			c0-0.2-0.1-0.4-0.2-0.5s-0.3-0.2-0.5-0.2c-0.2,0-0.3,0-0.4,0.1c-0.1,0.1-0.1,0.2-0.1,0.3c0,0.1,0,0.2,0.1,0.2
			c0.1,0.1,0.2,0.1,0.5,0.2c0.7,0.2,1.1,0.3,1.4,0.5c0.3,0.2,0.5,0.4,0.6,0.6c0.1,0.2,0.2,0.5,0.2,0.8c0,0.3-0.1,0.7-0.3,1
			c-0.2,0.3-0.4,0.5-0.7,0.7c-0.3,0.2-0.7,0.2-1.2,0.2c-0.8,0-1.4-0.2-1.7-0.5C147.6,60.8,147.4,60.4,147.4,59.8z"/>
		<path class="st18" d="M152.2,56.2h4.5v1.3h-1.5v4.1h-1.5v-4.1h-1.5V56.2z"/>
	</g>
</g>
</svg>
